<svg width="23" height="23" viewBox="0 0 23 23" fill="none" xmlns="http://www.w3.org/2000/svg">
<g id="SVG">
<path id="Vector" d="M8.30589 18.5309L15.5948 11.4866L8.30589 4.44224C8.10722 4.25088 7.84067 4.14627 7.56488 4.15143C7.28908 4.15659 7.02663 4.2711 6.83526 4.46976C6.6439 4.66843 6.53928 4.93498 6.54445 5.21077C6.54961 5.48657 6.66411 5.74902 6.86278 5.94039L12.6046 11.4866L6.86278 17.0389C6.66411 17.2302 6.54961 17.4927 6.54445 17.7685C6.53928 18.0443 6.6439 18.3108 6.83526 18.5095C7.02663 18.7081 7.28908 18.8226 7.56488 18.8278C7.84067 18.833 8.10722 18.7284 8.30589 18.537V18.5309Z" fill="#FF7D39"/>
</g>
</svg>
