<svg width="52" height="53" viewBox="0 0 52 53" fill="none" xmlns="http://www.w3.org/2000/svg">
<g id="Group 2169">
<path id="Vector" d="M49.1111 0.544434H2.88889C2.12271 0.544434 1.38791 0.848798 0.846136 1.39057C0.304364 1.93234 0 2.66714 0 3.43332V49.6555C0 50.4217 0.304364 51.1565 0.846136 51.6983C1.38791 52.2401 2.12271 52.5444 2.88889 52.5444H27.7767V32.4378H21.0224V24.5655H27.7767V18.7878C27.7767 12.0711 31.8789 8.41088 37.8878 8.41088C39.9071 8.4051 41.9293 8.5091 43.94 8.71999V15.7111H39.7944C36.5358 15.7111 35.9002 17.2653 35.9002 19.5389V24.5511H43.6916L42.6804 32.4233H35.8973V52.5444H49.1111C49.8773 52.5444 50.6121 52.2401 51.1539 51.6983C51.6956 51.1565 52 50.4217 52 49.6555V3.43332C52 2.66714 51.6956 1.93234 51.1539 1.39057C50.6121 0.848798 49.8773 0.544434 49.1111 0.544434Z" fill="#FFB669"/>
</g>
</svg>
