<svg width="111" height="113" viewBox="0 0 111 113" fill="none" xmlns="http://www.w3.org/2000/svg">
<g id="Frame" clip-path="url(#clip0_49_4685)">
<g id="Group">
<g id="OBJECTS">
<path id="Vector" d="M104.008 17.7785H86.8526C86.7844 17.7785 86.7168 17.7919 86.6538 17.818C86.5907 17.8441 86.5335 17.8824 86.4852 17.9307C86.437 17.9789 86.3987 18.0362 86.3725 18.0993C86.3464 18.1623 86.333 18.2299 86.333 18.2981V33.2684C86.3337 33.3689 86.3634 33.467 86.4185 33.551C86.4736 33.6351 86.5518 33.7014 86.6437 33.7421C86.7356 33.7827 86.8372 33.7961 86.9365 33.7804C87.0357 33.7648 87.1283 33.7208 87.2032 33.6538L89.7542 31.334C89.8498 31.2461 89.9749 31.1972 90.1048 31.1973H104.011C104.149 31.1973 104.281 31.1426 104.379 31.0452C104.477 30.9479 104.532 30.8157 104.533 30.6777V18.2981C104.533 18.2295 104.519 18.1615 104.493 18.0981C104.467 18.0347 104.428 17.9772 104.379 17.9289C104.33 17.8806 104.272 17.8424 104.209 17.8166C104.145 17.7908 104.077 17.7778 104.008 17.7785Z" fill="#FDE4C6"/>
<path id="Vector_2" d="M80.7586 7.495H95.2441C95.3601 7.495 95.4714 7.54111 95.5535 7.62317C95.6356 7.70524 95.6817 7.81654 95.6817 7.9326V20.5707C95.6835 20.6579 95.6595 20.7437 95.6125 20.8171C95.5655 20.8906 95.4977 20.9485 95.4178 20.9834C95.3379 21.0183 95.2494 21.0286 95.1636 21.0132C95.0778 20.9977 94.9985 20.9571 94.9358 20.8964L92.795 18.9322C92.7142 18.8584 92.6086 18.8176 92.4992 18.8178H80.7586C80.6419 18.8178 80.53 18.7715 80.4474 18.6889C80.3649 18.6064 80.3185 18.4945 80.3185 18.3778V7.93509C80.3182 7.8772 80.3294 7.81983 80.3514 7.76628C80.3734 7.71274 80.4058 7.6641 80.4467 7.62316C80.4876 7.58223 80.5363 7.54983 80.5898 7.52783C80.6434 7.50583 80.7007 7.49467 80.7586 7.495Z" fill="white" stroke="#FDE4C6" stroke-miterlimit="10"/>
<path id="Vector_3" d="M4.3083 96.2478H102.947" stroke="#FFB669" stroke-miterlimit="10"/>
<path id="Vector_4" d="M11.8245 18.4971L11.3273 18.062C11.3132 18.049 11.303 18.0324 11.2977 18.0139C11.2924 17.9955 11.2923 17.976 11.2974 17.9575C11.3284 17.8604 11.3541 17.7616 11.3745 17.6617C11.411 17.4748 11.4318 17.2852 11.4367 17.0948C11.4367 17.0743 11.4432 17.0544 11.4553 17.0379C11.4674 17.0214 11.4843 17.0091 11.5038 17.0028L12.0284 16.8238C12.1298 16.7872 12.2127 16.7122 12.2593 16.6149C12.3058 16.5177 12.3122 16.406 12.2771 16.3041L11.8568 15.0609C11.8203 14.9595 11.7452 14.8766 11.648 14.8301C11.5508 14.7836 11.4391 14.7772 11.3372 14.8123L10.7629 15.0062C10.7445 15.0123 10.7247 15.0126 10.7061 15.0073C10.6875 15.002 10.6709 14.9912 10.6584 14.9764C10.452 14.7368 10.2106 14.5298 9.94237 14.3623C9.92559 14.3517 9.91237 14.3363 9.9044 14.3182C9.89642 14.3 9.89404 14.2799 9.8976 14.2603L9.99208 13.7979C10.0026 13.745 10.0026 13.6905 9.99199 13.6377C9.98142 13.5848 9.96052 13.5345 9.9305 13.4897C9.90048 13.4449 9.86191 13.4064 9.81702 13.3766C9.77213 13.3467 9.72179 13.3259 9.66888 13.3155L8.38093 13.0669C8.27446 13.0456 8.16389 13.0675 8.07348 13.1276C7.98306 13.1877 7.92019 13.2812 7.8986 13.3876L7.8066 13.8501C7.80172 13.8694 7.7914 13.887 7.77686 13.9006C7.76232 13.9143 7.74414 13.9235 7.72453 13.9272C7.37047 13.9868 7.02914 14.1062 6.71509 14.2802C6.69821 14.2917 6.6783 14.2978 6.65791 14.2978C6.63752 14.2978 6.61761 14.2917 6.60073 14.2802L6.35209 14.0565C6.27007 13.9851 6.16321 13.9491 6.05475 13.956C5.94628 13.963 5.84495 14.0125 5.77275 14.0938L4.90502 15.0883C4.83371 15.1703 4.79764 15.2772 4.80462 15.3856C4.8116 15.4941 4.86108 15.5954 4.94232 15.6676L5.23324 15.9163C5.24779 15.93 5.25807 15.9476 5.26292 15.9669C5.26777 15.9863 5.26697 16.0067 5.26058 16.0257C5.21034 16.1625 5.17046 16.303 5.14124 16.4458C5.0957 16.675 5.07566 16.9085 5.08154 17.142C5.08316 17.1631 5.07769 17.1841 5.06597 17.2017C5.05425 17.2192 5.03699 17.2324 5.01693 17.239L4.73597 17.3335C4.63496 17.3706 4.55244 17.4457 4.506 17.5427C4.45955 17.6398 4.45285 17.7512 4.48733 17.8531L4.90751 19.0963C4.94462 19.1973 5.01971 19.2798 5.11678 19.3263C5.21385 19.3727 5.32521 19.3794 5.42715 19.3449L5.84736 19.2032C5.86494 19.1971 5.88391 19.1963 5.90199 19.2007C5.92006 19.2051 5.93649 19.2146 5.94931 19.2281C6.19314 19.4895 6.47987 19.7073 6.79713 19.872C6.8162 19.8818 6.83158 19.8976 6.84099 19.9168C6.8504 19.9361 6.85335 19.9579 6.84936 19.9789L6.77227 20.3594C6.76178 20.4123 6.76182 20.4667 6.77239 20.5196C6.78296 20.5725 6.80386 20.6228 6.83389 20.6676C6.86391 20.7124 6.90245 20.7508 6.94734 20.7807C6.99223 20.8106 7.0426 20.8313 7.09551 20.8417L8.38342 21.0903C8.4899 21.1116 8.60046 21.0898 8.69088 21.0297C8.78129 20.9695 8.8442 20.876 8.86579 20.7696L8.98015 20.2002C8.98373 20.1819 8.99238 20.165 9.00513 20.1513C9.01788 20.1377 9.03423 20.1279 9.05227 20.1232C9.35545 20.0467 9.64542 19.9252 9.91253 19.7626C9.92936 19.7499 9.94987 19.7431 9.97096 19.7431C9.99205 19.7431 10.0126 19.7499 10.0294 19.7626L10.4173 20.1033C10.4577 20.1389 10.5048 20.1662 10.5559 20.1836C10.6069 20.201 10.6608 20.2082 10.7146 20.2047C10.7685 20.2012 10.8211 20.1872 10.8694 20.1634C10.9178 20.1396 10.961 20.1065 10.9966 20.066L11.8643 19.0714C11.9338 18.9894 11.9685 18.8834 11.9611 18.7762C11.9537 18.6689 11.9047 18.5688 11.8245 18.4971ZM8.0801 18.5866C7.77825 18.5259 7.50118 18.3771 7.28393 18.159C7.06668 17.9408 6.91901 17.6631 6.85959 17.361C6.80018 17.0589 6.83168 16.746 6.95013 16.4618C7.06858 16.1776 7.26865 15.935 7.52504 15.7645C7.78142 15.5941 8.08262 15.5035 8.39049 15.5042C8.69837 15.5049 8.99911 15.597 9.25468 15.7686C9.51025 15.9403 9.70918 16.1839 9.82628 16.4687C9.94338 16.7534 9.97339 17.0665 9.91253 17.3683C9.87245 17.5687 9.79322 17.7593 9.67938 17.9291C9.56553 18.0988 9.41931 18.2445 9.24909 18.3576C9.07887 18.4708 8.88801 18.5493 8.68742 18.5886C8.48682 18.6279 8.28043 18.6272 8.0801 18.5866Z" fill="#FFCC9F"/>
<path id="Vector_5" d="M20.3602 29.5588L19.5869 28.8776C19.5641 28.8582 19.5476 28.8325 19.5397 28.8037C19.5317 28.7748 19.5326 28.7443 19.5422 28.716C19.589 28.5639 19.628 28.4096 19.659 28.2535C19.718 27.9612 19.7505 27.6641 19.756 27.3659C19.7563 27.334 19.7666 27.303 19.7853 27.2772C19.804 27.2514 19.8302 27.232 19.8604 27.2217L20.6834 26.9432C20.7632 26.9163 20.837 26.8739 20.9005 26.8185C20.9639 26.763 21.0158 26.6956 21.0532 26.6201C21.0906 26.5446 21.1128 26.4625 21.1184 26.3784C21.1241 26.2944 21.1131 26.21 21.0862 26.1302L20.4298 24.1834C20.4029 24.1035 20.3605 24.0298 20.305 23.9663C20.2496 23.9029 20.1822 23.8509 20.1067 23.8135C20.0312 23.7761 19.9491 23.754 19.865 23.7483C19.7809 23.7427 19.6966 23.7536 19.6168 23.7806L18.7192 24.0839C18.6903 24.0934 18.6591 24.094 18.6298 24.0856C18.6006 24.0771 18.5745 24.0601 18.5551 24.0367C18.2316 23.6632 17.8545 23.3398 17.4362 23.0769C17.4097 23.0607 17.3888 23.0368 17.3764 23.0083C17.3639 22.9799 17.3605 22.9483 17.3666 22.9178L17.5133 22.1943C17.5442 22.0296 17.5095 21.8594 17.4166 21.72C17.3237 21.5807 17.1799 21.4832 17.016 21.4484L15.0021 21.0431C14.8375 21.0128 14.6676 21.0478 14.5284 21.1406C14.3892 21.2334 14.2915 21.3768 14.2562 21.5404L14.112 22.2639C14.1058 22.2947 14.0903 22.3229 14.0676 22.3447C14.045 22.3664 14.0162 22.3808 13.9852 22.3857C13.4305 22.4785 12.8957 22.6651 12.4039 22.9377C12.3762 22.9533 12.3444 22.96 12.3128 22.9569C12.2812 22.9538 12.2514 22.941 12.2273 22.9203L11.8295 22.5697C11.7019 22.4573 11.5349 22.4002 11.3652 22.411C11.1954 22.4217 11.0369 22.4994 10.9245 22.6269L9.56692 24.1709C9.45455 24.2986 9.39746 24.4656 9.40819 24.6353C9.41891 24.805 9.49656 24.9635 9.6241 25.076L10.0791 25.4738C10.1024 25.4944 10.1189 25.5216 10.1264 25.5518C10.134 25.5819 10.1322 25.6137 10.1214 25.6428C10.045 25.8582 9.9827 26.0783 9.9349 26.3017C9.8648 26.6603 9.83479 27.0255 9.84539 27.3907C9.84567 27.424 9.83553 27.4566 9.81635 27.4838C9.79717 27.511 9.76994 27.5315 9.7385 27.5424L9.3009 27.6916C9.22106 27.7185 9.14728 27.7609 9.08383 27.8163C9.02037 27.8718 8.96847 27.9392 8.93107 28.0147C8.89367 28.0902 8.8715 28.1723 8.86585 28.2564C8.86019 28.3404 8.87116 28.4248 8.89811 28.5046L9.55697 30.4514C9.58389 30.5313 9.62631 30.605 9.68174 30.6685C9.73717 30.7319 9.80455 30.7839 9.88005 30.8213C9.95555 30.8587 10.0377 30.8808 10.1218 30.8865C10.2058 30.8921 10.2902 30.8812 10.37 30.8542L11.0239 30.6329C11.052 30.6234 11.0824 30.6223 11.1111 30.6298C11.1398 30.6373 11.1657 30.6531 11.1855 30.6752C11.5681 31.079 12.0161 31.4153 12.5108 31.6698C12.5409 31.6853 12.5652 31.7101 12.58 31.7406C12.5947 31.7711 12.5993 31.8056 12.5928 31.8388L12.4735 32.4306C12.4426 32.5952 12.4773 32.7654 12.5702 32.9048C12.6631 33.0442 12.8069 33.1417 12.9708 33.1765L14.9847 33.5818C15.1493 33.612 15.3191 33.577 15.4584 33.4842C15.5976 33.3914 15.6952 33.248 15.7306 33.0845L15.9096 32.1919C15.9161 32.1638 15.9302 32.138 15.9503 32.1174C15.9705 32.0967 15.996 32.0821 16.024 32.075C16.4981 31.9542 16.9515 31.7631 17.3691 31.5081C17.3974 31.4908 17.4304 31.4829 17.4635 31.4856C17.4966 31.4883 17.5279 31.5014 17.5531 31.5231L18.1573 32.0551C18.2849 32.1675 18.4519 32.2246 18.6216 32.2139C18.7913 32.2032 18.9498 32.1255 19.0623 31.998L20.4198 30.4539C20.5295 30.3268 20.5846 30.1616 20.5735 29.9942C20.5623 29.8267 20.4857 29.6703 20.3602 29.5588ZM14.5048 29.7006C14.0329 29.6056 13.5997 29.3728 13.2601 29.0317C12.9205 28.6905 12.6896 28.2563 12.5967 27.784C12.5038 27.3117 12.5531 26.8224 12.7382 26.3781C12.9234 25.9337 13.2361 25.5542 13.6369 25.2876C14.0377 25.021 14.5086 24.8792 14.9899 24.8801C15.4713 24.8811 15.9416 25.0248 16.3413 25.293C16.7411 25.5612 17.0523 25.9419 17.2357 26.387C17.4191 26.8321 17.4664 27.3216 17.3716 27.7935C17.3089 28.1072 17.185 28.4054 17.0069 28.6711C16.8289 28.9367 16.6001 29.1647 16.3338 29.3418C16.0676 29.519 15.7689 29.6418 15.4551 29.7034C15.1412 29.765 14.8183 29.764 14.5048 29.7006Z" fill="#FFCC9F"/>
<path id="Vector_6" d="M3.74389 53.2686H13.9379C14.5651 53.2485 15.16 52.9852 15.5965 52.5344C16.0331 52.0836 16.2772 51.4807 16.2772 50.8531C16.2772 50.2256 16.0331 49.6227 15.5965 49.1719C15.16 48.7211 14.5651 48.4578 13.9379 48.4377H13.8783C13.7165 47.4012 13.2288 46.4431 12.486 45.7024C11.7431 44.9617 10.7836 44.4768 9.74667 44.3181C8.70971 44.1594 7.64911 44.335 6.71868 44.8195C5.78824 45.3041 5.03631 46.0723 4.57186 47.013C4.29833 46.9361 4.01561 46.8968 3.73148 46.8961C3.30589 46.8842 2.88224 46.9578 2.48557 47.1124C2.0889 47.2671 1.72727 47.4997 1.42204 47.7965C1.11681 48.0933 0.874191 48.4483 0.70852 48.8405C0.542848 49.2327 0.457487 49.6541 0.457487 50.0799C0.457487 50.5056 0.542848 50.9271 0.70852 51.3193C0.874191 51.7115 1.11681 52.0665 1.42204 52.3633C1.72727 52.6601 2.0889 52.8927 2.48557 53.0474C2.88224 53.202 3.30589 53.2756 3.73148 53.2637L3.74389 53.2686Z" stroke="#FDE4C6" stroke-miterlimit="10"/>
<path id="Vector_7" d="M88.9163 79.711H99.1253C99.7656 79.711 100.38 79.4566 100.832 79.0039C101.285 78.5511 101.54 77.937 101.54 77.2967C101.54 76.6564 101.285 76.0423 100.832 75.5896C100.38 75.1368 99.7656 74.8825 99.1253 74.8825H99.0656C98.9038 73.846 98.4162 72.8879 97.6733 72.1472C96.9304 71.4065 95.971 70.9217 94.934 70.7629C93.897 70.6042 92.8364 70.7798 91.906 71.2644C90.9756 71.7489 90.2236 72.5172 89.7592 73.4578C89.4845 73.3827 89.2011 73.3442 88.9163 73.3434C88.0723 73.3434 87.2628 73.6787 86.6659 74.2756C86.0691 74.8724 85.7338 75.6819 85.7338 76.526C85.7338 77.37 86.0691 78.1795 86.6659 78.7763C87.2628 79.3732 88.0723 79.7085 88.9163 79.7085V79.711Z" stroke="#FDE4C6" stroke-miterlimit="10"/>
<path id="Vector_8" d="M27.869 7.18916H35.0794C35.5201 7.17232 35.9373 6.98539 36.2431 6.66759C36.549 6.3498 36.7199 5.92586 36.7199 5.48477C36.7199 5.04368 36.549 4.61974 36.2431 4.30195C35.9373 3.98415 35.5201 3.79721 35.0794 3.78038H35.0371C34.9233 3.04839 34.5789 2.3718 34.0541 1.84902C33.5292 1.32624 32.8513 0.984538 32.1188 0.873605C31.3864 0.762673 30.6377 0.888298 29.9815 1.23221C29.3254 1.57612 28.7961 2.12038 28.4707 2.78584C28.278 2.73198 28.079 2.70438 27.8789 2.70379C27.2831 2.70379 26.7117 2.94046 26.2905 3.36175C25.8692 3.78303 25.6325 4.35442 25.6325 4.9502C25.6325 5.54599 25.8692 6.11737 26.2905 6.53866C26.7117 6.95994 27.2831 7.19662 27.8789 7.19662L27.869 7.18916Z" fill="#FDE4C6"/>
<path id="Vector_9" d="M95.6419 50.5089H95.07V49.3577C95.0706 48.9855 94.9997 48.6166 94.8612 48.2711C94.8289 48.1866 94.7891 48.107 94.7493 48.0225V48.0076C94.471 47.4574 94.0131 47.0188 93.4514 46.7644H93.4291C93.2756 46.6993 93.1166 46.6477 92.9542 46.6103H92.897C92.8356 46.597 92.7735 46.5871 92.7105 46.5804H92.6409C92.5588 46.5804 92.4768 46.568 92.3922 46.568H91.7533C91.6712 46.568 91.5892 46.568 91.5046 46.5804H91.4375C91.3728 46.5804 91.3107 46.5978 91.2485 46.6103H91.1938C91.0312 46.6474 90.8723 46.6989 90.7189 46.7644H90.6941C90.1324 47.0188 89.6745 47.4574 89.3962 48.0076V48.0225C89.3539 48.1021 89.3166 48.1816 89.2818 48.2711C89.1433 48.6166 89.0724 48.9855 89.073 49.3577V50.5089H88.5011C88.2373 50.5089 87.9844 50.6136 87.7979 50.8002C87.6113 50.9867 87.5066 51.2396 87.5066 51.5034V57.7193C87.5066 57.983 87.6113 58.236 87.7979 58.4225C87.9844 58.609 88.2373 58.7138 88.5011 58.7138H95.6543C95.9181 58.7138 96.1711 58.609 96.3576 58.4225C96.5441 58.236 96.6489 57.983 96.6489 57.7193V51.5034C96.6489 51.3717 96.6227 51.2414 96.572 51.1199C96.5212 50.9984 96.4469 50.8882 96.3532 50.7957C96.2595 50.7032 96.1484 50.6302 96.0263 50.581C95.9042 50.5317 95.7736 50.5072 95.6419 50.5089ZM89.7841 49.3577C89.7832 49.0674 89.8407 48.7799 89.9531 48.5123C89.983 48.4402 90.0178 48.3731 90.0526 48.306L90.0973 48.2264C90.1371 48.1617 90.1794 48.0996 90.2266 48.0374L90.2888 47.9653C90.3236 47.9231 90.3609 47.8808 90.4007 47.841C90.4237 47.8151 90.4486 47.791 90.4753 47.7689C90.5304 47.7174 90.5885 47.6693 90.6493 47.6247L90.7115 47.5849C90.7637 47.5501 90.8159 47.5203 90.8706 47.4904L90.9427 47.4531C91.0161 47.4178 91.0917 47.3871 91.169 47.3611H91.1988C91.2716 47.3399 91.3455 47.3225 91.4201 47.3089H91.4872C91.5695 47.2965 91.6526 47.2899 91.7358 47.289H92.3972C92.4805 47.2899 92.5635 47.2965 92.6459 47.3089H92.713C92.7876 47.3225 92.8615 47.3399 92.9343 47.3611H92.9641C93.0415 47.3866 93.1171 47.4174 93.1903 47.4531L93.2625 47.4904C93.3172 47.5203 93.3694 47.5501 93.4216 47.5849L93.4837 47.6247C93.545 47.6687 93.6032 47.7168 93.6578 47.7689C93.6851 47.7913 93.71 47.8161 93.7349 47.841L93.8467 47.9653L93.9089 48.0374C93.9537 48.0996 93.9959 48.1617 94.0357 48.2264L94.0805 48.306C94.1178 48.3731 94.1501 48.4402 94.1824 48.5123C94.2937 48.7803 94.3512 49.0675 94.3515 49.3577V50.5089H89.7865L89.7841 49.3577ZM92.4793 55.121V55.8893C92.4793 55.9816 92.4426 56.0702 92.3773 56.1355C92.312 56.2007 92.2235 56.2374 92.1312 56.2374C92.0389 56.2374 91.9503 56.2007 91.885 56.1355C91.8198 56.0702 91.7831 55.9816 91.7831 55.8893V55.121C91.6277 55.0427 91.5033 54.9143 91.43 54.7566C91.3566 54.5988 91.3387 54.4209 91.3789 54.2517C91.4192 54.0824 91.5153 53.9317 91.6518 53.8238C91.7883 53.716 91.9572 53.6573 92.1312 53.6573C92.3052 53.6573 92.474 53.716 92.6106 53.8238C92.7471 53.9317 92.8432 54.0824 92.8834 54.2517C92.9237 54.4209 92.9057 54.5988 92.8324 54.7566C92.759 54.9143 92.6346 55.0427 92.4793 55.121Z" fill="#FFCC9F"/>
<path id="Vector_10" d="M12.5978 87.4833C12.5978 87.4833 16.8246 78.0799 15.9867 74.3057C15.9867 74.3007 12.6749 81.3072 12.5978 87.4833Z" fill="#2F7D54"/>
<path id="Vector_11" d="M13.5625 84.4028C13.5625 84.4028 11.5734 89.1393 11.0438 93.1548" stroke="#2F7D54" stroke-miterlimit="10"/>
<path id="Vector_12" d="M10.1264 82.9432C10.1264 82.9432 12.3442 87.8612 12.1652 93.1373" stroke="#2F7D54" stroke-miterlimit="10"/>
<path id="Vector_13" d="M12.1229 81.6454L11.7624 93.2765" stroke="#2F7D54" stroke-miterlimit="10"/>
<path id="Vector_14" d="M12.1229 82.9632C12.1229 82.9632 12.7246 68.2764 9.60671 63.7189C9.60173 63.7189 8.94782 74.7508 12.1229 82.9632Z" fill="#2F7D54"/>
<path id="Vector_15" d="M12.1652 85.1263C12.1652 85.1263 15.7082 70.8596 13.57 65.77C13.5799 65.77 10.7057 76.4414 12.1652 85.1263Z" fill="#84B063"/>
<path id="Vector_16" d="M11.3422 87.1825C11.3422 87.1825 9.30834 72.6225 5.42715 68.6965C5.4172 68.6965 6.73746 79.6688 11.3422 87.1825Z" fill="#84B063"/>
<path id="Vector_17" d="M9.34316 89.1666H14.296L13.7216 96.1209H9.92L9.34316 89.1666Z" fill="#FFCC9F"/>
<g id="Vector_18" style="mix-blend-mode:multiply">
<path d="M30.1216 96.1334C30.1216 96.8445 40.2162 97.4213 52.6678 97.4213C65.1195 97.4213 75.2165 96.8445 75.2165 96.1334C75.2165 95.4223 65.1219 94.8455 52.6678 94.8455C40.2137 94.8455 30.1216 95.4223 30.1216 96.1334Z" fill="#E2E2E2"/>
</g>
<path id="Vector_19" d="M71.5069 15.0933H33.3961C32.4212 15.0933 31.6308 15.8836 31.6308 16.8586V94.5595C31.6308 95.5345 32.4212 96.3248 33.3961 96.3248H71.5069C72.4818 96.3248 73.2722 95.5345 73.2722 94.5595V16.8586C73.2722 15.8836 72.4818 15.0933 71.5069 15.0933Z" fill="#FF7D39"/>
<path id="Vector_20" d="M69.4408 16.4682H57.8519C57.4191 16.4634 56.9937 16.5802 56.6241 16.8053C56.2544 17.0303 55.9553 17.3546 55.7609 17.7412C55.4848 18.3305 55.0466 18.8289 54.4975 19.1781C53.9484 19.5273 53.3111 19.7127 52.6604 19.7127C52.0096 19.7127 51.3724 19.5273 50.8233 19.1781C50.2741 18.8289 49.8359 18.3305 49.5599 17.7412C49.3656 17.3544 49.0666 17.03 48.6969 16.8049C48.3272 16.5798 47.9017 16.4631 47.4689 16.4682H35.4598C35.1205 16.4727 34.7855 16.544 34.4738 16.6781C34.1621 16.8121 33.8799 17.0062 33.6432 17.2494C33.4066 17.4925 33.2201 17.7798 33.0945 18.095C32.969 18.4102 32.9067 18.747 32.9113 19.0863V87.9085C32.905 88.2488 32.9661 88.5869 33.0909 88.9036C33.2158 89.2202 33.4019 89.509 33.6388 89.7535C33.8756 89.9979 34.1584 90.1931 34.4709 90.328C34.7834 90.4628 35.1195 90.5345 35.4598 90.539H69.4383C69.7775 90.5345 70.1126 90.4632 70.4242 90.3291C70.7359 90.1951 71.0181 90.001 71.2548 89.7579C71.4915 89.5147 71.6779 89.2274 71.8035 88.9122C71.9291 88.597 71.9914 88.2602 71.9868 87.9209V19.0863C71.9961 18.4016 71.7331 17.7412 71.2557 17.2502C70.7783 16.7593 70.1255 16.478 69.4408 16.4682Z" fill="white"/>
<path id="Vector_21" d="M57.5684 94.3307H47.5385C47.3848 94.3307 47.2326 94.3004 47.0907 94.2416C46.9488 94.1827 46.8198 94.0964 46.7113 93.9876C46.6027 93.8788 46.5167 93.7497 46.4581 93.6076C46.3995 93.4656 46.3696 93.3133 46.3699 93.1597C46.3699 92.8497 46.493 92.5525 46.7122 92.3334C46.9313 92.1142 47.2285 91.9911 47.5385 91.9911H57.5684C57.8784 91.9911 58.1756 92.1142 58.3947 92.3334C58.6139 92.5525 58.737 92.8497 58.737 93.1597C58.7373 93.3133 58.7074 93.4656 58.6488 93.6076C58.5902 93.7497 58.5042 93.8788 58.3956 93.9876C58.2871 94.0964 58.1581 94.1827 58.0162 94.2416C57.8743 94.3004 57.7221 94.3307 57.5684 94.3307Z" fill="white"/>
<g id="Group_2" style="mix-blend-mode:multiply" opacity="0.12">
<path id="Vector_22" d="M34.2564 17.2116H46.263C46.696 17.2071 47.1216 17.3242 47.4912 17.5497C47.8609 17.7752 48.1599 18.1 48.354 18.4871C48.6331 19.074 49.0721 19.5703 49.6205 19.9191C50.1689 20.2679 50.8046 20.4549 51.4545 20.4588C52.33 20.4563 53.1708 20.1161 53.8016 19.509C53.4356 19.6416 53.0496 19.7105 52.6604 19.7129C52.0105 19.709 51.3748 19.5219 50.8264 19.1732C50.278 18.8244 49.839 18.3281 49.5599 17.7412C49.3656 17.3544 49.0666 17.03 48.6969 16.8049C48.3272 16.5798 47.9017 16.4631 47.4689 16.4682H35.4598C35.1078 16.4691 34.7599 16.5439 34.4387 16.6879C34.1175 16.8318 33.83 17.0415 33.595 17.3036C33.8104 17.2436 34.0328 17.2127 34.2564 17.2116Z" fill="#FF7D39"/>
<path id="Vector_23" d="M69.4407 16.4682H57.8519C57.5124 16.4667 57.1766 16.539 56.8679 16.6803C56.5592 16.8215 56.285 17.0283 56.0642 17.2862C56.2543 17.2375 56.4497 17.2125 56.646 17.2116H68.2348C68.9198 17.2214 69.5729 17.5026 70.0507 17.9935C70.5285 18.4843 70.792 19.1447 70.7834 19.8297V88.6544C70.7847 89.3121 70.5409 89.9468 70.0996 90.4346C70.6474 90.278 71.1289 89.9462 71.4702 89.49C71.8114 89.0337 71.9938 88.4782 71.9893 87.9085V19.0863C71.9939 18.747 71.9316 18.4102 71.806 18.095C71.6804 17.7798 71.4939 17.4925 71.2573 17.2493C71.0206 17.0062 70.7384 16.8121 70.4267 16.6781C70.115 16.544 69.78 16.4727 69.4407 16.4682Z" fill="#FF7D39"/>
</g>
<path id="Vector_24" d="M53.5505 17.2116C53.551 17.3878 53.4992 17.5601 53.4017 17.7068C53.3041 17.8535 53.1653 17.968 53.0027 18.0357C52.8401 18.1035 52.661 18.1215 52.4882 18.0874C52.3154 18.0533 52.1566 17.9688 52.0318 17.8444C51.9071 17.72 51.8221 17.5614 51.7875 17.3887C51.753 17.2159 51.7705 17.0368 51.8378 16.874C51.9051 16.7112 52.0191 16.5721 52.1656 16.4742C52.312 16.3762 52.4842 16.324 52.6604 16.324C52.896 16.324 53.122 16.4174 53.2889 16.5838C53.4557 16.7502 53.5498 16.976 53.5505 17.2116Z" fill="white"/>
<path id="Vector_25" d="M43.4534 30.9387L65.4178 30.9387V28.8303L43.4534 28.8303V30.9387Z" fill="#FFCC9F"/>
<path id="Vector_26" d="M43.4534 35.0039H65.4178V32.8955H43.4534V35.0039Z" fill="#FFCC9F"/>
<path id="Vector_27" d="M43.4534 39.0691H65.4178V36.9607H43.4534V39.0691Z" fill="#FFCC9F"/>
<path id="Vector_28" d="M36.969 25.4737C36.9664 25.3977 36.9901 25.323 37.0361 25.2624C37.0907 25.1961 37.1563 25.1398 37.2301 25.0958L40.2137 23.0868C40.2314 23.0763 40.2507 23.0687 40.2709 23.0645H40.3132C40.338 23.0643 40.3627 23.069 40.3857 23.0784C40.4088 23.0878 40.4298 23.1016 40.4474 23.1192C40.4826 23.155 40.5022 23.2032 40.5021 23.2534V23.6562C40.5026 23.6995 40.4944 23.7424 40.4782 23.7825C40.462 23.8226 40.438 23.8591 40.4076 23.8899C40.3494 23.9517 40.2843 24.0068 40.2137 24.054L37.8368 25.6652L40.2137 27.2763C40.2843 27.3227 40.3493 27.3769 40.4076 27.4379C40.4685 27.5005 40.5025 27.5844 40.5021 27.6717V28.0769C40.5026 28.1019 40.498 28.1266 40.4886 28.1497C40.4792 28.1728 40.4652 28.1937 40.4474 28.2112C40.4301 28.2292 40.4092 28.2433 40.3861 28.2528C40.3629 28.2622 40.3381 28.2666 40.3132 28.2659C40.2992 28.2682 40.2849 28.2682 40.2709 28.2659C40.2507 28.2616 40.2314 28.2541 40.2137 28.2435L37.2301 26.237C37.1568 26.1925 37.0912 26.1362 37.0361 26.0705C36.9901 26.0098 36.9664 25.9352 36.969 25.8591V25.4737Z" fill="#FFCC9F"/>
<path id="Vector_29" d="M26.2205 66.6676H48.0208V48.5496H26.2205L26.2205 66.6676Z" fill="white" stroke="#FFB669" stroke-miterlimit="10"/>
<path id="Vector_30" d="M28.4508 54.037H45.5519V52.396H28.4508V54.037Z" fill="#FFCC9F"/>
<path id="Vector_31" d="M28.4508 57.2021H45.5519V55.5612H28.4508V57.2021Z" fill="#FFCC9F"/>
<path id="Vector_32" d="M31.4319 60.3698H45.5519V58.7288H31.4319V60.3698Z" fill="#FFCC9F"/>
<path id="Vector_33" d="M31.4319 63.5348H45.5519V61.8938H31.4319V63.5348Z" fill="#FFCC9F"/>
<g id="Vector_34" style="mix-blend-mode:multiply">
<path d="M18.6744 105.492C18.6744 106.238 22.9012 106.835 28.1449 106.835C33.3886 106.835 37.618 106.235 37.618 105.492C37.618 104.749 33.3911 104.149 28.1449 104.149C22.8987 104.149 18.6744 104.751 18.6744 105.492Z" fill="#E2E2E2"/>
</g>
<path id="Vector_35" d="M21.5089 100.581L21.039 103.401L23.1872 104.336L24.3532 100.649C23.405 100.71 22.4532 100.688 21.5089 100.581Z" fill="#FFC0AD"/>
<path id="Vector_36" d="M34.0103 101.064L35.7059 86.4988V65.2454L25.8003 64.0992L31.3101 86.3446L31.1932 100.937C32.1212 101.115 33.07 101.158 34.0103 101.064Z" fill="#2A3141"/>
<path id="Vector_37" d="M31.1858 100.937L31.3076 103.878L33.3862 104.309L34.0102 101.064" fill="#FFC0AD"/>
<path id="Vector_38" d="M30.7606 65.7278L24.9898 66.1405L24.7213 69.5568L23.7043 87.2098L21.5089 100.584C22.4515 100.69 23.4017 100.712 24.3483 100.651L28.4806 86.7026L30.7606 65.7278Z" fill="#2A3141"/>
<path id="Vector_39" d="M21.121 102.938C21.121 102.938 21.7824 103.963 23.5303 103.068C23.5303 103.068 23.488 103.339 24.4875 104.336C24.4875 104.336 26.8719 104.945 27.4711 105.944C27.4711 105.944 23.7565 106.417 20.2906 105.751C20.293 105.751 20.5417 103.983 21.121 102.938Z" fill="#2A3141"/>
<path id="Vector_40" d="M31.3076 103.219C31.3076 103.219 32.8889 103.965 33.61 103.192C33.61 103.192 33.9705 103.498 34.7189 104.162C34.7189 104.162 36.9566 104.883 37.5757 105.882C35.3225 106.338 33.0144 106.46 30.7258 106.243C30.7258 106.243 30.7159 104.271 31.3076 103.219Z" fill="#2A3141"/>
<path id="Vector_41" d="M23.2543 57.4408C22.675 58.9475 22.215 60.2181 22.026 60.8222C21.9899 60.9337 21.9805 61.0521 21.9986 61.1679C22.0168 61.2836 22.062 61.3935 22.1305 61.4886C23.1797 62.9331 27.9038 65.785 29.5647 66.8168L30.6686 65.1087C30.6686 65.1087 25.5791 61.1305 25.4299 60.4965C25.6011 59.6916 25.8665 58.9097 26.2205 58.1668" fill="#FFC0AD"/>
<path id="Vector_42" d="M26.8893 58.8555C27.5482 57.5701 28.0455 55.5139 28.692 53.4055C28.8458 52.8998 28.8891 52.367 28.8187 51.8431C28.7483 51.3193 28.566 50.8167 28.2842 50.3696C27.7049 49.5243 27.041 49.9917 27.041 49.9917C25.8625 51.2771 24.0872 55.2478 23.2419 57.4507" fill="#FFB669"/>
<path id="Vector_43" d="M36.3002 58.7784C36.6383 60.2827 37.2947 62.0107 37.4688 62.5801C37.4968 62.6853 37.5492 62.7824 37.6218 62.8637C37.6944 62.9449 37.785 63.0078 37.8865 63.0475C39.3957 63.6094 44.351 63.2613 46.0914 63.1619L46.0367 61.2101C46.0367 61.2101 40.3181 60.7004 39.8731 60.2777C39.8731 60.2777 39.6692 58.7859 39.5324 57.6646" fill="#FFC0AD"/>
<path id="Vector_44" d="M39.709 57.7193C39.4845 56.1108 39.1226 54.5245 38.6274 52.9778C38.3266 51.9559 36.7776 50.3174 35.7681 50.1284C34.8581 49.9594 35.3429 51.1454 35.3429 51.1454C35.6239 53.1344 35.8054 56.5979 36.3002 58.7884" fill="#FFB669"/>
<path id="Vector_45" d="M36.2256 43.7659L36.872 44.8599C36.8953 44.9104 36.8979 44.9681 36.8793 45.0205C36.8608 45.073 36.8225 45.1161 36.7726 45.1408L36.2753 45.3895L36.2256 43.7659Z" fill="#FFC0AD"/>
<path id="Vector_46" d="M34.6443 49.8848L34.602 49.8674C34.1868 49.6983 34.0252 46.5456 34.3857 45.7226L31.0142 41.2671C31.1515 43.3157 31.1074 45.3725 30.8824 47.4133C30.8099 47.8151 30.6574 48.1981 30.4341 48.5398C30.2107 48.8815 29.9209 49.1748 29.5821 49.4024" fill="#FFC0AD"/>
<path id="Vector_47" d="M36.2902 47.2766C36.2919 47.3724 36.2614 47.4661 36.2038 47.5426C36.1461 47.6192 36.0645 47.6743 35.972 47.6993C33.8462 48.2189 30.3329 44.9643 30.3304 42.7266C30.3304 41.6027 31.494 41.0756 32.6229 40.7996C34.3633 40.372 35.6935 40.1258 36.2877 43.3059C36.2952 43.3432 36.2902 47.2766 36.2902 47.2766Z" fill="#FFC0AD"/>
<path id="Vector_48" d="M35.8104 41.6724L35.9919 41.4958C36.0425 41.445 36.0821 41.3842 36.1081 41.3173C36.1341 41.2504 36.1459 41.1788 36.1429 41.1071C36.1399 41.0354 36.122 40.9651 36.0905 40.9006C36.0589 40.8361 36.0143 40.7789 35.9596 40.7325C33.0704 38.2462 29.6343 41.3293 29.8382 42.6122C30.4175 46.2622 30.9744 46.7992 30.9744 46.7992C30.9744 46.7992 32.4861 48.0001 32.4265 44.8698C33.7989 45.6754 33.9183 42.5078 33.9183 42.5078C33.9058 42.0155 35.1366 41.9334 35.8104 41.6724Z" fill="#2A3141"/>
<path id="Vector_49" d="M32.1803 45.1756C32.4066 45.5834 32.8441 45.7848 33.1599 45.6257C33.4757 45.4665 33.5453 45.0066 33.319 44.5988C33.0928 44.191 32.6552 43.9872 32.3419 44.1463C32.0286 44.3054 31.954 44.7679 32.1803 45.1756Z" fill="#FFC0AD"/>
<path id="Vector_50" d="M37.4066 53.8281C37.2176 52.013 36.601 50.3969 36.2156 50.29C35.6129 49.9597 34.9938 49.6602 34.3608 49.3924C34.3608 49.3924 31.0515 49.6112 30.3255 48.7385C30.3255 48.7385 27.1355 49.7132 27.0534 49.9817C25.8102 54.1414 26.1161 55.203 26.1161 55.203L25.6561 60.8744L24.7685 67.2618C26.0862 67.8735 32.8541 68.6865 35.8849 68.0898C35.8849 68.0898 35.5717 62.1598 35.6164 61.1777C35.6214 61.1777 37.5707 55.4169 37.4066 53.8281Z" fill="#FFB669"/>
<path id="Vector_51" d="M45.4052 61.3418C45.4052 61.3418 45.7409 60.2652 46.1959 60.0489C46.6509 59.8326 47.4664 59.303 47.6877 59.4994C47.909 59.6959 47.2799 60.3622 46.534 60.5114L45.4052 61.3418Z" fill="#FFC0AD"/>
<path id="Vector_52" d="M46.0094 60.5686C46.0094 60.5686 47.9089 60.1409 48.2247 60.1409C48.3011 60.1361 48.3772 60.1537 48.4438 60.1916C48.5103 60.2294 48.5643 60.2859 48.5991 60.3541C48.634 60.4222 48.6482 60.499 48.64 60.5751C48.6318 60.6512 48.6015 60.7233 48.5529 60.7824C48.446 60.9191 48.8886 61.0509 48.6399 61.5059C48.4833 61.7894 48.722 61.7744 48.6623 62.0455C48.6126 62.2593 48.2571 62.3513 48.3018 62.5676C48.3839 62.9679 47.9736 62.9952 47.72 63.1395C47.4664 63.2837 46.3898 63.4652 45.4027 62.9878C44.1148 62.3662 46.0094 60.5686 46.0094 60.5686Z" fill="#FFC0AD"/>
<path id="Vector_53" d="M33.3041 44.3577C33.3041 44.3577 34.5324 45.3771 35.1763 45.3771C35.8203 45.3771 36.2778 45.3771 36.2778 45.3771C36.2778 45.3771 36.7353 47.6968 36.5911 47.8013C36.4469 47.9057 34.2613 48.3632 33.2419 47.1971C32.2225 46.031 33.2842 44.7331 33.3041 44.3577Z" fill="#2A3141"/>
<path id="Vector_54" d="M25.8152 58.3756L25.942 53.843" stroke="#2A3141" stroke-miterlimit="10"/>
<path id="Vector_55" d="M36.5886 55.2155L36.3524 58.6665" stroke="#2A3141" stroke-miterlimit="10"/>
<path id="Vector_56" d="M29.3657 78.438L27.9237 73.9452" stroke="#808080" stroke-miterlimit="10"/>
<path id="Vector_57" d="M33.8791 100.369L31.4108 100.244C31.1722 100.232 30.9689 100.416 30.9568 100.654L30.9258 101.268C30.9137 101.506 31.0973 101.71 31.3359 101.722L33.8042 101.847C34.0429 101.859 34.2461 101.675 34.2582 101.437L34.2893 100.823C34.3013 100.585 34.1177 100.381 33.8791 100.369Z" fill="#808080"/>
<path id="Vector_58" d="M24.2425 100.097L21.7885 99.804C21.5513 99.7757 21.336 99.945 21.3076 100.182L21.2348 100.792C21.2065 101.029 21.3758 101.245 21.6131 101.273L24.0671 101.566C24.3043 101.594 24.5196 101.425 24.5479 101.188L24.6208 100.578C24.6491 100.341 24.4797 100.125 24.2425 100.097Z" fill="#808080"/>
<path id="Vector_59" d="M70.3831 99.2711V101.031L83.2549 101.745L94.4932 101.382V99.6565L70.3831 99.2711Z" fill="#FFB669"/>
<path id="Vector_60" d="M70.3831 101.031L83.2549 101.745V100.022L77.4791 99.3855L70.3831 99.2711V101.031Z" fill="#FF7D39"/>
<path id="Vector_61" d="M94.4932 99.6566L83.2549 100.022L70.3831 99.306L81.6239 98.943L94.4932 99.6566Z" fill="#FFCC9F"/>
<path id="Vector_62" d="M74.958 97.4138V99.1717L87.8298 99.8852L99.0681 99.5222V97.7992L74.958 97.4138Z" fill="#84B063"/>
<path id="Vector_63" d="M74.958 99.1717L87.8298 99.8852V98.1622L82.054 97.5257L74.958 97.4138V99.1717Z" fill="#FFB669"/>
<path id="Vector_64" d="M99.0681 97.7993L87.8298 98.1623L74.958 97.4487L86.1987 97.0857L99.0681 97.7993Z" fill="#FFCC9F"/>
<path id="Vector_65" d="M70.3831 95.2333V96.9911L83.2549 97.7072L94.4932 97.3417V95.6187L70.3831 95.2333Z" fill="#FFB669"/>
<path id="Vector_66" d="M70.3831 96.9911L83.2549 97.7072V95.9817L77.4791 95.3476L70.3831 95.2333V96.9911Z" fill="#FF7D39"/>
<path id="Vector_67" d="M94.4932 95.6187L83.2549 95.9817L70.3831 95.2682L81.6239 94.9052L94.4932 95.6187Z" fill="#FFCC9F"/>
<path id="Vector_68" d="M110.364 101.074L105.383 89.5793H92.9467L92.2306 90.5813L97.2108 102.076H109.648L110.364 101.074Z" fill="#FFCC9F"/>
<path id="Vector_69" d="M110.364 101.074H97.9269L92.9467 89.5793H105.383L110.364 101.074Z" fill="#FF7D39"/>
<path id="Vector_70" d="M98.439 96.464C98.0626 96.2389 97.7535 95.9169 97.5439 95.5317C97.4967 95.4471 97.4221 95.3129 97.3227 95.1239C97.2232 94.9349 97.1486 94.7957 97.1063 94.7087C96.9074 94.3084 96.8801 94.0001 97.0168 93.7813C97.1536 93.5625 97.442 93.4556 97.8771 93.4556C98.152 93.4553 98.4251 93.5007 98.6852 93.5898C98.9467 93.6769 99.1914 93.8081 99.4087 93.9777C99.6197 94.1415 99.7956 94.3461 99.9259 94.5794C99.9317 94.5901 99.9348 94.602 99.9348 94.6142C99.9348 94.6264 99.9317 94.6384 99.9259 94.649C99.9197 94.6583 99.9111 94.6657 99.901 94.6705C99.891 94.6753 99.8798 94.6774 99.8687 94.6764H99.2123C99.175 94.6781 99.138 94.6695 99.1054 94.6515C99.0661 94.6253 99.0309 94.5935 99.001 94.557C98.9023 94.4269 98.7779 94.3186 98.6354 94.2388C98.5125 94.1783 98.3771 94.1476 98.2401 94.1493C97.8887 94.1493 97.8116 94.3432 98.0089 94.7311C98.0487 94.8156 98.1158 94.9424 98.2078 95.1164C98.2998 95.2905 98.3694 95.4198 98.4216 95.5093C98.4944 95.6764 98.6127 95.8196 98.7631 95.9225C98.9135 96.0254 99.0899 96.0838 99.272 96.0911C99.3253 96.097 99.3793 96.0918 99.4307 96.076C99.482 96.0602 99.5295 96.034 99.5703 95.9991C99.63 95.9369 99.6399 95.8325 99.6001 95.6833C99.5937 95.6684 99.5904 95.6523 99.5904 95.6361C99.5904 95.6198 99.5937 95.6038 99.6001 95.5889C99.6001 95.5714 99.6424 95.564 99.6847 95.564H100.354C100.384 95.5653 100.414 95.5748 100.441 95.5913C100.468 95.6087 100.491 95.6326 100.508 95.661C100.615 95.8418 100.658 96.0543 100.627 96.2627C100.609 96.3467 100.572 96.4255 100.518 96.4928C100.465 96.5601 100.397 96.614 100.319 96.6505C100.111 96.7482 99.8821 96.7943 99.6524 96.7848C99.2263 96.7899 98.8069 96.679 98.439 96.464Z" fill="white"/>
<path id="Vector_71" d="M102.253 96.5511C102.22 96.5316 102.193 96.5032 102.176 96.469L101.731 95.6336H100.918C100.882 95.6318 100.848 95.6197 100.818 95.5988C100.785 95.5794 100.757 95.551 100.739 95.5168L100.55 95.1612C100.544 95.148 100.541 95.1336 100.541 95.1189C100.541 95.1043 100.544 95.0899 100.55 95.0767C100.556 95.0648 100.565 95.055 100.577 95.0487C100.588 95.0424 100.602 95.04 100.615 95.0419H101.428L100.997 94.2313C100.991 94.2186 100.988 94.2045 100.988 94.1903C100.988 94.1761 100.991 94.162 100.997 94.1493C101.004 94.1383 101.014 94.1294 101.025 94.1237C101.037 94.1179 101.049 94.1156 101.062 94.1169H101.46C101.496 94.1172 101.532 94.1285 101.562 94.1493C101.595 94.1694 101.622 94.1977 101.641 94.2313L102.072 95.0419H102.875C102.912 95.0431 102.948 95.0552 102.979 95.0767C103.013 95.097 103.04 95.1262 103.059 95.1612L103.25 95.5168C103.257 95.5299 103.26 95.5444 103.26 95.559C103.26 95.5737 103.257 95.5881 103.25 95.6013C103.243 95.6125 103.232 95.6214 103.22 95.6271C103.208 95.6328 103.194 95.635 103.181 95.6336H102.377L102.822 96.469C102.83 96.482 102.833 96.4965 102.833 96.5113C102.833 96.5261 102.83 96.5406 102.822 96.5536C102.815 96.5646 102.805 96.5734 102.793 96.5791C102.782 96.5848 102.768 96.5871 102.755 96.5859H102.343C102.31 96.5823 102.279 96.5703 102.253 96.5511Z" fill="white"/>
<path id="Vector_72" d="M105.05 96.5511C105.017 96.531 104.99 96.5027 104.971 96.4691L104.528 95.6337H103.713C103.677 95.6312 103.643 95.6192 103.613 95.5989C103.581 95.5786 103.554 95.5503 103.536 95.5168L103.347 95.1613C103.341 95.148 103.338 95.1336 103.338 95.119C103.338 95.1044 103.341 95.09 103.347 95.0767C103.353 95.0648 103.362 95.055 103.374 95.0488C103.385 95.0425 103.399 95.0401 103.412 95.0419H104.225L103.795 94.2314C103.788 94.2186 103.785 94.2046 103.785 94.1903C103.785 94.1761 103.788 94.1621 103.795 94.1493C103.801 94.1381 103.811 94.129 103.822 94.1233C103.834 94.1175 103.847 94.1153 103.859 94.117H104.257C104.293 94.1177 104.329 94.1289 104.359 94.1493C104.392 94.1695 104.419 94.1977 104.439 94.2314L104.869 95.0419H105.672C105.709 95.0432 105.746 95.0553 105.776 95.0767C105.809 95.0978 105.837 95.1268 105.856 95.1613L106.045 95.5168C106.052 95.5296 106.057 95.5442 106.057 95.5591C106.057 95.574 106.052 95.5886 106.045 95.6013C106.038 95.6125 106.028 95.6215 106.016 95.6272C106.004 95.633 105.991 95.6352 105.978 95.6337H105.172L105.617 96.4691C105.625 96.4818 105.629 96.4965 105.629 96.5113C105.629 96.5262 105.625 96.5409 105.617 96.5536C105.61 96.5644 105.6 96.5731 105.588 96.5788C105.576 96.5844 105.563 96.5869 105.55 96.5859H105.152C105.116 96.5846 105.08 96.5725 105.05 96.5511Z" fill="white"/>
<path id="Vector_73" d="M97.9269 101.074L97.2108 102.076L92.2306 90.5813L92.9467 89.5793L97.9269 101.074Z" fill="#FFCC9F"/>
<g id="Vector_74" style="mix-blend-mode:multiply">
<path d="M91.7458 104.786L90.8955 106.487L79.1748 101.78L80.9177 97.8416L91.7458 104.786Z" fill="#E2E2E2"/>
</g>
<path id="Vector_75" d="M101.753 98.9977L91.6613 91.5759L80.9177 97.8415L80.8034 99.0673L90.8955 106.487L101.639 100.221L101.753 98.9977Z" fill="#FFB669"/>
<path id="Vector_76" d="M101.753 98.9977L91.0098 105.263L80.9177 97.8415L91.6613 91.5759L101.753 98.9977Z" fill="#FFB669"/>
<path id="Vector_77" d="M90.8383 100.713C90.5831 100.765 90.321 100.776 90.0625 100.743C89.8058 100.712 89.5584 100.627 89.3365 100.494C89.3147 100.482 89.2987 100.461 89.2918 100.437C89.2905 100.426 89.293 100.415 89.2989 100.406C89.3048 100.396 89.3136 100.389 89.3241 100.385L89.8935 100.052C89.9289 100.031 89.9691 100.019 90.0103 100.017C90.0613 100.019 90.1117 100.029 90.1595 100.047C90.2726 100.103 90.3978 100.13 90.5241 100.127C90.6503 100.123 90.7736 100.088 90.883 100.025C91.0123 99.9499 91.062 99.8654 91.0372 99.7759C91.0123 99.6864 90.9104 99.5745 90.7314 99.4626L89.4882 98.6869L88.2077 99.4328C88.1751 99.4479 88.1392 99.4547 88.1033 99.4527C88.0654 99.4518 88.0284 99.4406 87.9964 99.4203L87.5289 99.1319C87.4966 99.112 87.4792 99.0897 87.4792 99.0648C87.4783 99.0522 87.4814 99.0396 87.4881 99.0289C87.4948 99.0181 87.5048 99.0098 87.5165 99.0051L89.4683 97.8664C89.5017 97.8482 89.5398 97.8404 89.5777 97.844C89.617 97.8458 89.6554 97.8568 89.6896 97.8763L91.5469 99.025C91.7564 99.1403 91.9288 99.3128 92.0441 99.5223C92.0839 99.5997 92.1034 99.6859 92.1008 99.7728C92.0982 99.8598 92.0736 99.9447 92.0292 100.02C91.9059 100.209 91.7343 100.363 91.532 100.465C91.3154 100.584 91.0813 100.668 90.8383 100.713Z" fill="white"/>
<path id="Vector_78" d="M93.5161 99.1443C93.2711 99.1976 93.019 99.2093 92.7702 99.1791C92.5614 99.1566 92.3593 99.0924 92.1759 98.9901C92.1511 98.9727 92.1361 98.9553 92.1361 98.9329C92.1365 98.9219 92.14 98.9111 92.1461 98.9019C92.1523 98.8927 92.1609 98.8853 92.1709 98.8807L92.703 98.5724C92.7312 98.5533 92.7636 98.5413 92.7975 98.5376C92.8405 98.5325 92.8839 98.5325 92.9268 98.5376C93.0372 98.5602 93.1505 98.5652 93.2625 98.5525C93.3911 98.5349 93.5146 98.4909 93.6255 98.4232C93.7326 98.3688 93.8197 98.2817 93.8741 98.1746C93.9014 98.1 93.8741 98.0354 93.7871 97.9807C93.7222 97.9424 93.6485 97.9218 93.5733 97.921C93.4722 97.9238 93.3719 97.9397 93.2749 97.9682C93.1556 97.9981 92.9939 98.0503 92.7925 98.1224C92.4578 98.2548 92.103 98.3296 91.7433 98.3437C91.4378 98.3451 91.1384 98.2588 90.8805 98.095C90.7221 98.011 90.5974 97.8749 90.5275 97.7097C90.5027 97.6378 90.4948 97.5612 90.5043 97.4857C90.5138 97.4103 90.5404 97.3381 90.5822 97.2745C90.7004 97.0982 90.8612 96.9546 91.0496 96.8568C91.2798 96.7222 91.5326 96.6304 91.7955 96.5858C92.0375 96.5416 92.2848 96.5341 92.529 96.5634C92.719 96.5826 92.9038 96.6374 93.0735 96.7251C93.0847 96.7307 93.0946 96.7387 93.1023 96.7486C93.1101 96.7585 93.1155 96.77 93.1183 96.7822C93.1197 96.793 93.1175 96.8039 93.1121 96.8134C93.1067 96.8228 93.0984 96.8302 93.0884 96.8345L92.529 97.1627C92.4622 97.1964 92.3858 97.206 92.3127 97.19C92.2221 97.1606 92.1261 97.1521 92.0317 97.1651C91.921 97.1771 91.8142 97.2128 91.7184 97.2696C91.6074 97.3342 91.5427 97.3989 91.5245 97.4635C91.5096 97.5257 91.5444 97.5853 91.6289 97.6375C91.7274 97.6918 91.8413 97.7111 91.9521 97.6922C92.1563 97.6565 92.3563 97.5998 92.5489 97.5232C92.8032 97.4222 93.0662 97.3448 93.3346 97.2919C93.5402 97.2561 93.7505 97.2561 93.9562 97.2919C94.1561 97.3282 94.3471 97.4034 94.5181 97.5132C94.6884 97.6014 94.8202 97.7492 94.8885 97.9285C94.9094 98.0075 94.9119 98.0902 94.896 98.1703C94.8801 98.2505 94.8461 98.3259 94.7965 98.3909C94.6605 98.5737 94.4855 98.724 94.2843 98.831C94.0468 98.9762 93.7874 99.082 93.5161 99.1443Z" fill="white"/>
<path id="Vector_79" d="M91.0098 105.263L90.8955 106.487L80.8034 99.0673L80.9177 97.8416L91.0098 105.263Z" fill="#FF7D39"/>
<path id="Vector_80" d="M67.9589 57.1324C67.9589 57.1324 75.7436 58.7287 75.9525 59.0643C76.1613 59.4 73.0111 60.8968 73.0111 60.8968C73.0111 60.8968 68.2722 60.2578 66.7555 59.1961C65.2388 58.1344 67.9589 57.1324 67.9589 57.1324Z" fill="#F7BCB2"/>
<path id="Vector_81" d="M68.8689 57.6621C68.2349 56.138 66.5417 52.1375 66.5417 52.1375L65.3482 52.2444C65.3482 52.2444 65.5571 57.7989 66.3278 58.8506C67.0986 59.9023 69.3463 58.8058 68.8689 57.6621Z" fill="#F7BCB2"/>
<g id="Vector_82" style="mix-blend-mode:multiply">
<path d="M76.5791 111.119C76.5791 111.832 72.5114 112.409 67.4939 112.409C62.4765 112.409 58.4088 111.832 58.4088 111.119C58.4088 110.405 62.4765 109.831 67.4939 109.831C72.5114 109.831 76.5791 110.408 76.5791 111.119Z" fill="#E2E2E2"/>
</g>
<path id="Vector_83" d="M72.6954 106.156L69.9604 91.0016L68.3741 72.257L76.1166 70.9591L74.1549 90.5118L75.398 105.818C74.5183 106.061 73.6079 106.175 72.6954 106.156Z" fill="#2A3141"/>
<path id="Vector_84" d="M75.3831 105.818L75.4975 108.637L73.5432 109.212L72.6954 106.156" fill="#FFC0AD"/>
<path id="Vector_85" d="M75.4477 108.016C75.4477 108.016 73.9957 108.854 73.2448 108.167C73.2448 108.167 72.9241 108.488 72.2503 109.182C72.2503 109.182 70.1593 110.044 69.6546 111.046C71.8431 111.308 74.0582 111.245 76.2285 110.86C76.2285 110.86 76.0942 108.965 75.4477 108.016Z" fill="#2A3141"/>
<path id="Vector_86" d="M72.9672 106.869L75.2817 106.563C75.5185 106.531 75.6851 106.314 75.6537 106.077L75.5812 105.53C75.5498 105.293 75.3323 105.126 75.0955 105.158L72.781 105.464C72.5442 105.496 72.3776 105.713 72.409 105.95L72.4815 106.497C72.5129 106.734 72.7304 106.901 72.9672 106.869Z" fill="#808080"/>
<path id="Vector_87" d="M66.8102 72.2222L72.121 73.6071L71.937 74.6886C71.5492 76.9512 73.5482 76.1978 72.7152 78.3386L65.5247 90.4521L65.9399 108.13C64.9889 107.835 64.0654 107.457 63.1801 107.001L60.925 90.0418L66.8102 72.2222Z" fill="#2A3141"/>
<path id="Vector_88" d="M65.9226 106.146L66.1712 109.129L63.8415 109.925L62.9389 105.964C63.9262 106.112 64.9246 106.173 65.9226 106.146Z" fill="#FFC0AD"/>
<path id="Vector_89" d="M66.1264 108.647C66.1264 108.647 65.3457 109.659 63.5953 108.575C63.5953 108.575 63.6152 108.861 62.4864 109.818C62.4864 109.818 59.9379 110.251 59.2144 111.243C59.2144 111.243 63.0607 112.056 66.7455 111.656C66.7455 111.658 66.656 109.788 66.1264 108.647Z" fill="#2A3141"/>
<path id="Vector_90" d="M63.1261 106.968L65.7623 106.87C66.0011 106.861 66.1874 106.661 66.1786 106.422L66.153 105.734C66.1441 105.495 65.9433 105.309 65.7046 105.317L63.0683 105.415C62.8296 105.424 62.6432 105.625 62.6521 105.864L62.6777 106.552C62.6866 106.791 62.8873 106.977 63.1261 106.968Z" fill="#808080"/>
<g id="Vector_91" style="mix-blend-mode:multiply" opacity="0.3">
<path d="M66.2483 72.789C66.2483 72.789 72.3324 75.437 74.7242 70.9467L66.2483 72.789Z" fill="#947FAD"/>
</g>
<path id="Vector_92" d="M73.2772 58.8307C73.2772 58.8307 72.9987 56.3145 73.118 56.0957C73.2374 55.8769 74.9754 54.0196 74.9082 52.4657C74.8411 50.9117 73.1678 49.4547 71.1364 49.85C69.1324 50.2354 68.6352 51.3418 68.5432 52.4284C68.5158 52.7342 68.7694 53.132 68.6053 53.9674C68.3368 55.325 68.7669 55.8496 69.3239 57.1624C69.3523 57.2086 69.3922 57.2466 69.4397 57.2727C69.4872 57.2989 69.5407 57.3123 69.5949 57.3116C69.9355 57.3513 70.5894 57.3116 70.9326 56.9659L70.6118 58.3086C70.6118 58.3086 72.0688 59.2111 73.2772 58.8307Z" fill="#F7BCB2"/>
<path id="Vector_93" d="M69.0752 51.3815C69.5623 52.426 70.289 53.3409 71.1961 54.0519C71.1961 54.0519 71.9221 53.3408 72.1906 54.0295C72.5512 54.9295 71.3204 55.3572 71.3204 55.3572L73.0609 56.1901C73.0609 56.1901 74.953 54.574 75.0499 52.9977C75.1469 51.4213 74.1971 49.7505 72.223 49.4148C69.9852 49.0319 67.9415 50.8246 68.5755 52.1324C68.5804 52.1324 68.5904 51.7992 69.0752 51.3815Z" fill="#2A3141"/>
<path id="Vector_94" d="M68.8564 53.3085C68.8564 53.3085 68.3293 54.1339 68.1105 54.4771C67.934 54.7506 68.5606 55.0738 68.7619 55.034C68.9633 54.9942 68.8564 53.3085 68.8564 53.3085Z" fill="#F7BCB2"/>
<path id="Vector_95" d="M75.863 59.0171C75.1842 58.4925 74.2518 58.7163 73.2075 57.9306L70.6466 57.9132C69.9174 58.3717 69.0713 58.61 68.21 58.5994C67.0638 58.5994 66.5417 60.77 66.5417 60.77C66.4621 61.0634 66.6287 70.1038 66.6287 70.1038L66.2483 72.789C71.5914 75.1685 76.1091 70.9591 76.1091 70.9591L74.4955 68.0451L75.7934 62.4284C76.2633 61.5507 76.6636 59.6338 75.863 59.0171Z" fill="#FFB669"/>
<path id="Vector_96" d="M73.1031 50.5313C73.1928 50.0866 73.4303 49.6853 73.777 49.3927C74.1237 49.1002 74.5592 48.9336 75.0126 48.9201C75.3298 48.9125 75.6438 48.9851 75.9254 49.1311C76.2071 49.2771 76.4473 49.4919 76.6238 49.7555C77.2902 50.8172 76.6238 52.5949 75.49 52.8585C74.3563 53.122 72.8943 51.8366 73.1031 50.5313Z" fill="#2A3141"/>
<path id="Vector_97" d="M69.5054 83.7986L72.581 78.3386" stroke="#808080" stroke-miterlimit="10"/>
<path id="Vector_98" d="M76.1091 70.9591C76.1091 70.9591 76.9669 75.2953 75.311 78.5624L76.1091 70.9591Z" fill="#2A3141"/>
<path id="Vector_99" d="M68.7669 56.9186L62.5535 46.0433L50.1914 47.4108L49.5922 48.4849L55.8056 59.3602L68.1677 57.9927L68.7669 56.9186Z" fill="#FFB669"/>
<path id="Vector_100" d="M68.7669 56.9186L56.4048 58.2886L50.1914 47.4108L62.5535 46.0433L68.7669 56.9186Z" fill="#FFB669"/>
<path id="Vector_101" d="M56.2979 53.8903C56.2638 53.8732 56.234 53.8486 56.2109 53.8182L54.2964 51.0111C54.2865 50.9996 54.2793 50.986 54.2754 50.9714C54.2715 50.9567 54.2711 50.9414 54.274 50.9265C54.2786 50.9145 54.2869 50.9043 54.2975 50.8972C54.3082 50.89 54.3208 50.8864 54.3337 50.8868L55.634 50.7425C56.0114 50.6945 56.3947 50.7468 56.7454 50.8942C57.0924 51.0417 57.3882 51.2881 57.5958 51.6028C57.8195 51.9335 57.8742 52.1896 57.7599 52.3786C57.6455 52.5675 57.3869 52.6819 56.9891 52.7267L56.4645 52.7838L57.1035 53.7187C57.1121 53.7299 57.1184 53.7427 57.1218 53.7564C57.1252 53.7701 57.1257 53.7844 57.1234 53.7983C57.1234 53.8231 57.096 53.8356 57.0612 53.8405L56.3998 53.9126C56.3645 53.914 56.3294 53.9063 56.2979 53.8903ZM56.5465 52.11C56.6709 52.0976 56.7504 52.0553 56.7802 51.9857C56.8101 51.9161 56.7803 51.8191 56.7007 51.6998C56.6284 51.5898 56.5302 51.4993 56.4148 51.4362C56.3001 51.3741 56.1687 51.3497 56.0393 51.3666L55.5246 51.4238L56.0219 52.1697L56.5465 52.11Z" fill="white"/>
<path id="Vector_102" d="M59.4158 53.5471C59.3816 53.53 59.3525 53.5043 59.3312 53.4725L57.4143 50.6654C57.3961 50.6412 57.3881 50.6109 57.3919 50.5809C57.3966 50.5685 57.4052 50.5579 57.4164 50.5508C57.4276 50.5436 57.4408 50.5402 57.454 50.5411L58.0831 50.4715C58.1202 50.4671 58.1578 50.475 58.19 50.4939C58.2256 50.512 58.2563 50.5384 58.2795 50.571L58.9782 51.5953L60.0622 51.4735L59.3636 50.4491C59.3539 50.438 59.3471 50.4248 59.3436 50.4105C59.3402 50.3962 59.3402 50.3813 59.3437 50.3671C59.3483 50.3544 59.3568 50.3436 59.368 50.336C59.3791 50.3284 59.3924 50.3245 59.4058 50.3248L60.0324 50.2552C60.0693 50.2537 60.1061 50.2614 60.1393 50.2776C60.1747 50.2949 60.2048 50.3216 60.2263 50.3546L62.1433 53.1617C62.1533 53.172 62.1603 53.185 62.1634 53.199C62.1664 53.2131 62.1655 53.2277 62.1607 53.2413C62.1559 53.2537 62.1473 53.2642 62.1361 53.2714C62.125 53.2786 62.1118 53.282 62.0985 53.2811L61.472 53.3507C61.436 53.3548 61.3995 53.3479 61.3675 53.3308C61.3315 53.3145 61.3006 53.2887 61.278 53.2562L60.557 52.197L59.4729 52.3164L60.194 53.3756C60.2042 53.3863 60.2114 53.3995 60.2149 53.4139C60.2184 53.4283 60.2181 53.4434 60.2139 53.4576C60.2081 53.4698 60.1989 53.48 60.1875 53.4871C60.176 53.4941 60.1627 53.4977 60.1493 53.4974L59.5202 53.567C59.4842 53.5711 59.4478 53.5642 59.4158 53.5471Z" fill="white"/>
<path id="Vector_103" d="M62.8544 53.1643C62.8203 53.1473 62.7905 53.1226 62.7674 53.0922L60.8529 50.2851C60.843 50.2737 60.8358 50.2601 60.8319 50.2454C60.828 50.2308 60.8276 50.2154 60.8305 50.2006C60.8305 50.1782 60.8579 50.1633 60.8902 50.1608L62.1905 50.0166C62.5679 49.9685 62.9513 50.0209 63.3019 50.1683C63.6489 50.3157 63.9447 50.5622 64.1523 50.8769C64.3761 51.2084 64.4308 51.467 64.3164 51.6526C64.1995 51.8416 63.9434 51.9559 63.5456 52.0007L63.021 52.0579L63.66 52.9928C63.6686 53.0039 63.6749 53.0168 63.6783 53.0304C63.6817 53.0441 63.6822 53.0584 63.6799 53.0723C63.6799 53.0972 63.6525 53.1096 63.6177 53.1146L62.9563 53.1867C62.9209 53.1894 62.8855 53.1816 62.8544 53.1643ZM63.103 51.3841C63.2274 51.3717 63.3069 51.3294 63.3367 51.2598C63.3666 51.1902 63.3368 51.0932 63.2572 50.9738C63.1849 50.8639 63.0867 50.7734 62.9713 50.7103C62.8561 50.6494 62.7251 50.6251 62.5958 50.6407L62.0811 50.6979L62.5784 51.4438L63.103 51.3841Z" fill="white"/>
<path id="Vector_104" d="M56.4048 58.2887L55.8056 59.3603L49.5922 48.485L50.1914 47.4109L56.4048 58.2887Z" fill="#FFB669"/>
<path id="Vector_105" d="M60.6614 61.5706C60.6614 61.5706 67.8519 58.4328 68.21 58.5994C68.568 58.766 66.9494 61.9659 66.9494 61.9659C66.9494 61.9659 62.6306 64.0172 60.7808 63.955C58.9309 63.8929 60.6614 61.5706 60.6614 61.5706Z" fill="#F7BCB2"/>
<path id="Vector_106" d="M56.5316 57.4706C56.5316 57.4706 56.365 56.384 55.9796 56.2721C55.1492 56.0235 54.8931 55.4865 54.8608 55.7202C54.7912 56.2174 55.1343 56.5133 55.7037 56.6774L56.5316 57.4706Z" fill="#F7BCB2"/>
<path id="Vector_107" d="M56.0965 56.7397C56.0965 56.7397 54.6519 56.2797 54.4083 56.2673C54.0502 56.2498 54.0229 56.6651 54.1248 56.8341C54.2019 56.9609 53.8563 57.0629 54.0279 57.4831C54.1348 57.7466 53.9508 57.7317 53.9856 57.9803C54.0129 58.1743 54.2839 58.2712 54.2342 58.4776C54.1522 58.8332 54.4679 58.873 54.6569 59.0122C54.8458 59.1514 55.6689 59.3603 56.4521 58.9674C57.4814 58.4329 56.0965 56.7397 56.0965 56.7397Z" fill="#F7BCB2"/>
<path id="Vector_108" d="M61.7132 61.5184C60.3481 60.5861 56.7405 58.1619 56.7405 58.1619L55.8006 58.9078C55.8006 58.9078 59.008 63.4479 60.2288 63.9078C61.4496 64.3678 62.735 62.2146 61.7132 61.5184Z" fill="#F7BCB2"/>
<path id="Vector_109" d="M68.2995 58.6019C68.2995 58.6019 66.1364 58.6243 63.2124 60.3996C63.2124 60.3996 63.4213 62.9729 63.66 63.51C63.66 63.51 71.9395 61.7646 68.2995 58.6019Z" fill="#FFB669"/>
<path id="Vector_110" d="M66.5143 52.0454C66.5143 52.0454 66.1587 51.0509 65.9971 50.6506C65.8355 50.2503 64.5476 50.0165 64.115 49.7754C63.6824 49.5342 64.0951 50.5436 65.0051 50.7699C65.0051 50.7699 65.3308 52.7466 66.6262 52.4507" fill="#F7BCB2"/>
</g>
</g>
</g>
<defs>
<clipPath id="clip0_49_4685">
<rect width="109.929" height="111.57" fill="white" transform="translate(0.43457 0.838989)"/>
</clipPath>
</defs>
</svg>
