<svg width="15" height="15" viewBox="0 0 15 15" fill="none" xmlns="http://www.w3.org/2000/svg">
<path id="Vector" fill-rule="evenodd" clip-rule="evenodd" d="M0.0493164 7.27248C0.0493164 5.39055 0.796912 3.58569 2.12764 2.25496C3.45837 0.924231 5.26323 0.176636 7.14516 0.176636C9.0271 0.176636 10.832 0.924231 12.1627 2.25496C13.4934 3.58569 14.241 5.39055 14.241 7.27248C14.241 9.15442 13.4934 10.9593 12.1627 12.29C10.832 13.6207 9.0271 14.3683 7.14516 14.3683C5.26323 14.3683 3.45837 13.6207 2.12764 12.29C0.796912 10.9593 0.0493164 9.15442 0.0493164 7.27248ZM6.74022 10.3095L10.8255 5.20239L10.0876 4.61201L6.60398 8.96508L4.13652 6.90917L3.53101 7.63579L6.74022 10.3104V10.3095Z" fill="#939393"/>
</svg>
