<svg width="57" height="59" viewBox="0 0 57 59" fill="none" xmlns="http://www.w3.org/2000/svg">
<g id="Group 2171">
<g id="Vector">
<path d="M28.4778 14.7689C24.5961 14.7689 20.8733 16.311 18.1285 19.0558C15.3837 21.8006 13.8417 25.5233 13.8417 29.4051C13.8417 33.2868 15.3837 37.0096 18.1285 39.7544C20.8733 42.4992 24.5961 44.0412 28.4778 44.0412C32.3596 44.0412 36.0824 42.4992 38.8272 39.7544C41.572 37.0096 43.114 33.2868 43.114 29.4051C43.114 25.5233 41.572 21.8006 38.8272 19.0558C36.0824 16.311 32.3596 14.7689 28.4778 14.7689ZM28.4778 38.9104C25.956 38.9104 23.5375 37.9086 21.7544 36.1254C19.9712 34.3422 18.9694 31.9237 18.9694 29.4019C18.9694 26.8801 19.9712 24.4616 21.7544 22.6784C23.5375 20.8953 25.956 19.8935 28.4778 19.8935C30.9996 19.8935 33.4181 20.8953 35.2013 22.6784C36.9845 24.4616 37.9863 26.8801 37.9863 29.4019C37.9863 31.9237 36.9845 34.3422 35.2013 36.1254C33.4181 37.9086 30.9996 38.9104 28.4778 38.9104Z" fill="#FFB669"/>
<path d="M43.6932 17.643C45.5777 17.643 47.1054 16.1153 47.1054 14.2308C47.1054 12.3464 45.5777 10.8187 43.6932 10.8187C41.8088 10.8187 40.2811 12.3464 40.2811 14.2308C40.2811 16.1153 41.8088 17.643 43.6932 17.643Z" fill="#FFB669"/>
<path d="M55.4902 10.7617C54.7574 8.86946 53.6376 7.15105 52.2025 5.71648C50.7674 4.28191 49.0486 3.16279 47.156 2.43075C44.9414 1.59942 42.6018 1.1499 40.2368 1.10134C37.1886 0.968403 36.2232 0.93042 28.4937 0.93042C20.7641 0.93042 19.7734 0.93042 16.7506 1.10134C14.3873 1.14742 12.0494 1.59703 9.83763 2.43075C7.9446 3.16193 6.22532 4.28075 4.79009 5.71543C3.35487 7.15011 2.2354 8.86897 1.5035 10.7617C0.672 12.9762 0.223513 15.316 0.177255 17.681C0.0411484 20.726 0 21.6914 0 29.4241C0 37.1536 -3.1444e-08 38.138 0.177255 41.1672C0.224733 43.5348 0.671035 45.8708 1.5035 48.0896C2.23745 49.9817 3.35801 51.6999 4.79358 53.1343C6.22915 54.5688 7.94817 55.6881 9.84079 56.4206C12.0484 57.2853 14.3873 57.767 16.7569 57.8449C19.805 57.9779 20.7704 58.019 28.5 58.019C36.2296 58.019 37.2203 58.019 40.2431 57.8449C42.6079 57.7969 44.9474 57.3484 47.1624 56.5187C49.0544 55.785 50.7727 54.6649 52.2077 53.2299C53.6427 51.7949 54.7627 50.0766 55.4965 48.1846C56.329 45.9689 56.7753 43.6329 56.8227 41.2653C56.9588 38.2203 57 37.2549 57 29.5222C57 21.7895 57 20.8082 56.8227 17.7791C56.7859 15.3807 56.3351 13.0067 55.4902 10.7617ZM51.6349 40.933C51.6145 42.7571 51.2815 44.5643 50.6505 46.2759C50.1751 47.5068 49.4474 48.6245 48.5142 49.5573C47.5809 50.49 46.4627 51.2171 45.2316 51.6917C43.5389 52.3198 41.7509 52.6528 39.9456 52.6761C36.9386 52.8153 36.0903 52.8502 28.3797 52.8502C20.6628 52.8502 19.8747 52.8502 16.8107 52.6761C15.0063 52.654 13.2192 52.321 11.5279 51.6917C10.2924 51.22 9.16976 50.4942 8.23249 49.5613C7.29522 48.6284 6.56423 47.5092 6.08679 46.2759C5.46465 44.5827 5.13187 42.7968 5.1024 40.9931C4.96629 37.9861 4.93464 37.1378 4.93464 29.4272C4.93464 21.7135 4.93464 20.9254 5.1024 17.8582C5.12286 16.0351 5.45582 14.229 6.08679 12.5184C7.0522 10.021 9.03049 8.05542 11.5279 7.09951C13.22 6.47323 15.0066 6.14032 16.8107 6.11511C19.8209 5.97901 20.666 5.94102 28.3797 5.94102C36.0935 5.94102 36.8848 5.94103 39.9456 6.11511C41.7511 6.13683 43.5393 6.46985 45.2316 7.09951C46.4626 7.57516 47.5806 8.30295 48.5138 9.23616C49.447 10.1694 50.1748 11.2874 50.6505 12.5184C51.2726 14.2117 51.6054 15.9976 51.6349 17.8013C51.771 20.8114 51.8058 21.6565 51.8058 29.3703C51.8058 37.0808 51.8058 37.9101 51.6697 40.9361H51.6349V40.933Z" fill="#FFB669"/>
</g>
</g>
</svg>
