<svg width="53" height="54" viewBox="0 0 53 54" fill="none" xmlns="http://www.w3.org/2000/svg">
<g id="bi:linkedin" clip-path="url(#clip0_54_32)">
<path id="Vector" d="M0 4.34056C0 2.24375 1.74237 0.544434 3.89219 0.544434H49.1078C51.2576 0.544434 53 2.24375 53 4.34056V49.7483C53 51.8451 51.2576 53.5444 49.1078 53.5444H3.89219C1.74237 53.5444 0 51.8451 0 49.7483V4.34056ZM16.3737 44.9121V20.9792H8.42037V44.9121H16.3737ZM12.3987 17.7098C15.1713 17.7098 16.8971 15.8747 16.8971 13.5758C16.8474 11.2272 15.1746 9.44181 12.4517 9.44181C9.72881 9.44181 7.95 11.2306 7.95 13.5758C7.95 15.8747 9.67581 17.7098 12.3457 17.7098H12.3987ZM28.6564 44.9121V31.5461C28.6564 30.8306 28.7094 30.1151 28.9214 29.605C29.4945 28.1773 30.8029 26.6966 33.0024 26.6966C35.881 26.6966 37.0304 28.8895 37.0304 32.1092V44.9121H44.9837V31.1851C44.9837 23.8313 41.0617 20.4128 35.828 20.4128C31.6079 20.4128 29.7164 22.7316 28.6564 24.3646V24.4474H28.6034C28.621 24.4198 28.6387 24.3922 28.6564 24.3646V20.9792H20.7064C20.8058 23.2251 20.7064 44.9121 20.7064 44.9121H28.6564Z" fill="#FFB669"/>
</g>
<defs>
<clipPath id="clip0_54_32">
<rect width="53" height="53" fill="white" transform="translate(0 0.544434)"/>
</clipPath>
</defs>
</svg>
