<svg width="111" height="113" viewBox="0 0 111 113" fill="none" xmlns="http://www.w3.org/2000/svg">
<g id="OBJECTS" clip-path="url(#clip0_49_4805)">
<path id="Vector" opacity="0.5" d="M103.657 16.851C98.3318 8.32098 86.3334 3.92006 77.5214 8.76627C71.5041 12.0742 67.6656 18.8982 61.1293 21.0033C53.3366 23.5145 45.3386 18.3691 37.2611 17.0303C26.493 15.2462 15.1293 20.8731 9.17564 30.0205C3.22197 39.1679 2.51645 51.2502 6.41135 61.4414C8.53374 67.0004 12.1004 72.2138 17.2647 75.1762C23.8776 78.9612 31.974 78.5578 39.4616 79.9646C47.847 81.5375 55.5805 85.4368 63.6825 88.0956C71.7846 90.7543 80.8872 92.1105 88.6669 88.6233C95.9969 85.3385 101.021 78.1429 103.379 70.4644C106.162 61.4009 104.011 52.7682 105.179 43.8045C106.448 34.0773 109.405 26.062 103.657 16.851Z" fill="white"/>
<path id="Vector_2" d="M50.7675 76.6667C50.7675 76.6667 49.2914 84.8686 44.0418 88.8112L74.9942 89.0295C74.9942 89.0295 65.9163 82.8503 66.6811 76.6711L50.7675 76.6667Z" fill="#CFD7E2"/>
<path id="Vector_3" opacity="0.05" d="M50.1329 79.1274C50.1329 79.1274 56.7834 82.6985 69.6218 84.1125C69.6218 84.1125 66.1274 80.0296 66.6811 76.6667H50.7676L50.1329 79.1274Z" fill="black"/>
<path id="Vector_4" d="M89.9782 34.2984V77.2001C89.978 77.4532 89.9279 77.7038 89.8309 77.9375C89.7339 78.1713 89.5918 78.3836 89.4127 78.5625C89.2336 78.7413 89.021 78.8831 88.7871 78.9797C88.5532 79.0764 88.3026 79.1261 88.0495 79.1259H28.9075C28.3966 79.1259 27.9066 78.923 27.5453 78.5619C27.1839 78.2008 26.9807 77.711 26.9803 77.2001V34.2984C26.9801 34.0452 27.0298 33.7944 27.1266 33.5605C27.2233 33.3265 27.3653 33.1138 27.5442 32.9347C27.7232 32.7556 27.9357 32.6135 28.1696 32.5166C28.4035 32.4197 28.6543 32.3698 28.9075 32.3698H88.0495C88.561 32.3698 89.0516 32.573 89.4133 32.9346C89.775 33.2963 89.9782 33.7869 89.9782 34.2984Z" fill="#CFD7E2"/>
<path id="Vector_5" d="M89.9782 88.8053H25.6675V90.7108H89.9782V88.8053Z" fill="#EBF0F6"/>
<path id="Vector_6" d="M89.9782 34.2984V73.3833H26.9803V34.2984C26.9801 34.0452 27.0298 33.7944 27.1266 33.5605C27.2233 33.3265 27.3653 33.1138 27.5442 32.9347C27.7232 32.7556 27.9357 32.6135 28.1696 32.5166C28.4035 32.4197 28.6543 32.3698 28.9075 32.3698H88.0495C88.561 32.3698 89.0516 32.573 89.4133 32.9346C89.775 33.2963 89.9782 33.7869 89.9782 34.2984Z" fill="#403E4C"/>
<path id="Vector_7" d="M87.6404 35.1066H29.3181V70.7173H87.6404V35.1066Z" fill="#F4F8FF"/>
<path id="Vector_8" d="M60.3003 76.9237C60.5396 75.9096 59.9115 74.8934 58.8974 74.654C57.8832 74.4147 56.8671 75.0428 56.6277 76.0569C56.3883 77.0711 57.0164 78.0872 58.0306 78.3266C59.0447 78.566 60.0609 77.9379 60.3003 76.9237Z" fill="#EAF0F7"/>
<path id="Vector_9" opacity="0.6" d="M58.8016 68.8104C72.2943 68.8104 83.2322 65.9714 83.2322 62.4693C83.2322 58.9672 72.2943 56.1282 58.8016 56.1282C45.309 56.1282 34.371 58.9672 34.371 62.4693C34.371 65.9714 45.309 68.8104 58.8016 68.8104Z" fill="#FFF9F2"/>
<path id="Vector_10" d="M82.7262 55.6582V60.9656C82.7262 61.1564 82.6668 61.3425 82.5561 61.498C82.4455 61.6534 82.2891 61.7706 82.1089 61.8331C81.9161 61.9005 81.6829 61.9767 81.4091 62.0615C79.8188 62.5444 76.8694 63.2282 72.8617 63.2282C68.1933 63.2282 64.9519 62.4027 63.6435 61.9979C63.4561 61.9396 63.2922 61.8228 63.1759 61.6646C63.0596 61.5064 62.997 61.3152 62.9973 61.1189V55.6582H82.7262Z" fill="#FFB669"/>
<path id="Vector_11" opacity="0.2" d="M82.7262 55.6582V60.9656C82.7262 61.1564 82.6668 61.3425 82.5561 61.498C82.4455 61.6534 82.2891 61.7706 82.1089 61.8331C81.9161 61.9005 81.6829 61.9767 81.4091 62.0615C81.5537 61.4066 81.8255 60.782 81.9744 60.1271C82.1171 59.4951 82.1411 58.8421 82.0453 58.2013C82.0312 58.0062 81.9609 57.8194 81.8429 57.6635C81.5826 57.3743 81.12 57.4264 80.7397 57.5001C76.5006 58.3099 72.1664 58.5013 67.8724 58.0683C67.1956 58.006 66.5234 57.9007 65.8599 57.7531C64.8103 57.5088 63.8141 57.1098 62.9929 56.4115V55.6582H82.7262Z" fill="black"/>
<path id="Vector_12" d="M72.8617 57.7907C78.3097 57.7907 82.7262 56.834 82.7262 55.6538C82.7262 54.4737 78.3097 53.517 72.8617 53.517C67.4137 53.517 62.9973 54.4737 62.9973 55.6538C62.9973 56.834 67.4137 57.7907 72.8617 57.7907Z" fill="#FDE4C6"/>
<path id="Vector_13" d="M72.8617 57.6736C67.5052 57.6736 63.1491 56.7483 63.0045 55.5946C63.0007 55.6142 62.9982 55.634 62.9973 55.6539C62.9973 56.8351 67.4141 57.7907 72.8617 57.7907C78.3094 57.7907 82.7262 56.8351 82.7262 55.6539C82.7252 55.634 82.7228 55.6142 82.719 55.5946C82.5744 56.7483 78.2183 57.6736 72.8617 57.6736Z" fill="#FDE4C6"/>
<path id="Vector_14" d="M82.304 55.9821C76.1537 57.9744 69.8555 57.9744 63.4093 55.9821C63.2921 55.9469 63.189 55.8755 63.115 55.7781C63.041 55.6807 62.9997 55.5623 62.9973 55.4399V54.2833H82.7074V55.4399C82.7055 55.5612 82.6655 55.6788 82.5932 55.7761C82.5208 55.8734 82.4196 55.9454 82.304 55.9821Z" fill="#FDE4C6"/>
<path id="Vector_15" d="M82.7262 49.2462V54.5536C82.7262 54.7444 82.6668 54.9305 82.5561 55.086C82.4455 55.2415 82.2891 55.3586 82.1089 55.4211C81.918 55.4876 81.6853 55.5657 81.4091 55.6495C79.8188 56.131 76.8694 56.8163 72.8617 56.8163C68.1933 56.8163 64.9519 55.9893 63.6435 55.5845C63.4561 55.5266 63.2921 55.4101 63.1758 55.2522C63.0595 55.0942 62.9969 54.9031 62.9973 54.7069V49.2462H82.7262Z" fill="#FFB669"/>
<path id="Vector_16" opacity="0.2" d="M82.7262 49.2463V54.5537C82.7262 54.7445 82.6668 54.9306 82.5561 55.0861C82.4455 55.2416 82.2891 55.3587 82.1089 55.4212C81.918 55.4877 81.6853 55.5658 81.4091 55.6496C81.5537 54.9947 81.8255 54.3687 81.9744 53.7152C82.1171 53.0832 82.1411 52.4302 82.0453 51.7894C82.0318 51.5942 81.9615 51.4072 81.8429 51.2516C81.5826 50.9624 81.12 51.0145 80.7397 51.0868C76.5006 51.897 72.1665 52.0889 67.8724 51.6564C67.1955 51.5936 66.5233 51.4878 65.8599 51.3398C64.8103 51.0969 63.8141 50.6979 62.9929 49.9996V49.2449L82.7262 49.2463Z" fill="black"/>
<path id="Vector_17" d="M72.8617 51.3816C78.3097 51.3816 82.7262 50.4249 82.7262 49.2448C82.7262 48.0646 78.3097 47.1079 72.8617 47.1079C67.4137 47.1079 62.9973 48.0646 62.9973 49.2448C62.9973 50.4249 67.4137 51.3816 72.8617 51.3816Z" fill="#FDE4C6"/>
<path id="Vector_18" d="M72.8617 51.2659C67.5052 51.2659 63.1491 50.3406 63.0045 49.1869C63.0007 49.2064 62.9982 49.2263 62.9973 49.2462C62.9973 50.4259 67.4141 51.383 72.8617 51.383C78.3094 51.383 82.7262 50.4259 82.7262 49.2462C82.7252 49.2263 82.7228 49.2064 82.719 49.1869C82.5744 50.3406 78.2183 51.2659 72.8617 51.2659Z" fill="#FDE4C6"/>
<path id="Vector_19" d="M82.304 49.4617C76.1537 51.454 69.8555 51.454 63.4093 49.4617C63.2921 49.4266 63.189 49.3551 63.115 49.2577C63.041 49.1603 62.9997 49.0419 62.9973 48.9196V47.7629H82.7074V48.9196C82.7055 49.0408 82.6655 49.1584 82.5932 49.2557C82.5208 49.353 82.4196 49.425 82.304 49.4617Z" fill="#FDE4C6"/>
<path id="Vector_20" d="M82.7262 42.4569V47.7643C82.7262 47.9551 82.6668 48.1412 82.5561 48.2967C82.4455 48.4522 82.2891 48.5693 82.1089 48.6318C81.9161 48.7002 81.6829 48.7764 81.4091 48.8602C79.8188 49.3431 76.8694 50.0269 72.8617 50.0269C68.1933 50.0269 64.9519 49.2014 63.6435 48.7966C63.4561 48.7383 63.2922 48.6215 63.1759 48.4633C63.0596 48.3051 62.997 48.1139 62.9973 47.9176V42.4569H82.7262Z" fill="#FFB669"/>
<path id="Vector_21" opacity="0.2" d="M82.7262 42.457V47.7644C82.7262 47.9552 82.6668 48.1413 82.5561 48.2968C82.4455 48.4523 82.2891 48.5694 82.1089 48.6319C81.9161 48.7003 81.6829 48.7765 81.4091 48.8603C81.5537 48.2054 81.8255 47.5808 81.9744 46.9259C82.1171 46.2944 82.1411 45.6418 82.0453 45.0016C82.0318 44.8063 81.9615 44.6194 81.8429 44.4637C81.5826 44.1746 81.12 44.2266 80.7397 44.2989C76.5006 45.1092 72.1665 45.301 67.8724 44.8686C67.1955 44.8057 66.5233 44.7 65.8599 44.5519C64.8103 44.309 63.8141 43.9086 62.9929 43.2117V42.4556L82.7262 42.457Z" fill="black"/>
<path id="Vector_22" d="M72.8617 44.5939C78.3097 44.5939 82.7262 43.6372 82.7262 42.457C82.7262 41.2769 78.3097 40.3202 72.8617 40.3202C67.4137 40.3202 62.9973 41.2769 62.9973 42.457C62.9973 43.6372 67.4137 44.5939 72.8617 44.5939Z" fill="#FDE4C6"/>
<path id="Vector_23" d="M72.8617 44.4766C67.5052 44.4766 63.1491 43.5513 63.0045 42.399C63.0007 42.4181 62.9982 42.4375 62.9973 42.4569C62.9973 43.6381 67.4141 44.5952 72.8617 44.5952C78.3094 44.5952 82.7262 43.6381 82.7262 42.4569C82.7252 42.4375 82.7228 42.4181 82.719 42.399C82.5744 43.5513 78.2183 44.4766 72.8617 44.4766Z" fill="#FDE4C6"/>
<path id="Vector_24" d="M82.304 42.5018C76.1537 44.4921 69.8555 44.4921 63.4093 42.5018C63.2921 42.4666 63.189 42.3952 63.115 42.2978C63.041 42.2003 62.9997 42.0819 62.9973 41.9596V40.803H82.7074V41.9596C82.7055 42.0808 82.6655 42.1984 82.5932 42.2957C82.5208 42.393 82.4196 42.4651 82.304 42.5018Z" fill="#FDE4C6"/>
<path id="Vector_25" d="M82.7262 35.4869V40.7944C82.7262 40.9852 82.6668 41.1712 82.5561 41.3267C82.4455 41.4822 82.2891 41.5993 82.1089 41.6618C81.918 41.7283 81.6853 41.8064 81.4091 41.8903C79.8188 42.3717 76.8694 43.057 72.8617 43.057C68.1933 43.057 64.9519 42.23 63.6435 41.8252C63.4561 41.7673 63.2921 41.6508 63.1758 41.4929C63.0595 41.3349 62.9969 41.1438 62.9973 40.9476V35.4869H82.7262Z" fill="#FFB669"/>
<path id="Vector_26" d="M78.4974 40.495C78.4653 40.495 78.4335 40.4887 78.4039 40.4764C78.3742 40.4641 78.3473 40.4461 78.3246 40.4234C78.3019 40.4008 78.2839 40.3738 78.2717 40.3442C78.2594 40.3145 78.2531 40.2828 78.2531 40.2507V39.1866C78.2531 39.1545 78.2594 39.1227 78.2717 39.0931C78.2839 39.0634 78.3019 39.0365 78.3246 39.0138C78.3473 38.9911 78.3742 38.9731 78.4039 38.9609C78.4335 38.9486 78.4653 38.9423 78.4974 38.9423C78.5622 38.9423 78.6243 38.968 78.6702 39.0138C78.716 39.0596 78.7417 39.1218 78.7417 39.1866V40.2507C78.7417 40.2828 78.7354 40.3145 78.7231 40.3442C78.7109 40.3738 78.6928 40.4008 78.6702 40.4234C78.6475 40.4461 78.6205 40.4641 78.5909 40.4764C78.5612 40.4887 78.5295 40.495 78.4974 40.495Z" fill="#FDE4C6"/>
<path id="Vector_27" d="M79.3663 40.3202C79.3342 40.3202 79.3024 40.3139 79.2728 40.3016C79.2432 40.2893 79.2162 40.2713 79.1936 40.2486C79.1709 40.2259 79.1529 40.199 79.1406 40.1693C79.1283 40.1397 79.122 40.1079 79.122 40.0758V39.0002C79.122 38.9681 79.1283 38.9363 79.1406 38.9067C79.1529 38.877 79.1709 38.8501 79.1936 38.8274C79.2162 38.8047 79.2432 38.7867 79.2728 38.7745C79.3024 38.7622 79.3342 38.7559 79.3663 38.7559C79.4311 38.7559 79.4933 38.7816 79.5391 38.8274C79.5849 38.8732 79.6107 38.9354 79.6107 39.0002V40.0758C79.6107 40.1406 79.5849 40.2028 79.5391 40.2486C79.4933 40.2944 79.4311 40.3202 79.3663 40.3202Z" fill="#FDE4C6"/>
<path id="Vector_28" d="M80.1817 40.0151C80.1497 40.0151 80.1179 40.0088 80.0882 39.9965C80.0586 39.9842 80.0316 39.9662 80.009 39.9435C79.9863 39.9208 79.9683 39.8939 79.956 39.8643C79.9437 39.8346 79.9374 39.8028 79.9374 39.7708V38.8122C79.9374 38.7801 79.9437 38.7483 79.956 38.7187C79.9683 38.6891 79.9863 38.6621 80.009 38.6394C80.0316 38.6167 80.0586 38.5988 80.0882 38.5865C80.1179 38.5742 80.1497 38.5679 80.1817 38.5679C80.2138 38.5679 80.2456 38.5742 80.2752 38.5865C80.3049 38.5988 80.3318 38.6167 80.3545 38.6394C80.3772 38.6621 80.3952 38.6891 80.4075 38.7187C80.4197 38.7483 80.4261 38.7801 80.4261 38.8122V39.7708C80.4261 39.8028 80.4197 39.8346 80.4075 39.8643C80.3952 39.8939 80.3772 39.9208 80.3545 39.9435C80.3318 39.9662 80.3049 39.9842 80.2752 39.9965C80.2456 40.0088 80.2138 40.0151 80.1817 40.0151Z" fill="#FDE4C6"/>
<path id="Vector_29" opacity="0.2" d="M82.7262 35.487V40.7945C82.7262 40.9853 82.6668 41.1714 82.5561 41.3268C82.4455 41.4823 82.2891 41.5994 82.1089 41.6619C81.918 41.7284 81.6853 41.8065 81.4091 41.8904C81.5537 41.2354 81.8255 40.6094 81.9744 39.9559C82.1171 39.3239 82.1411 38.6709 82.0453 38.0302C82.0318 37.8349 81.9615 37.6479 81.8429 37.4923C81.5826 37.2032 81.12 37.2552 80.7397 37.3275C76.5006 38.1378 72.1665 38.3296 67.8724 37.8971C67.1955 37.8343 66.5233 37.7286 65.8599 37.5805C64.8103 37.3376 63.8141 36.9372 62.9929 36.2403V35.4856L82.7262 35.487Z" fill="black"/>
<path id="Vector_30" d="M72.8617 37.6223C78.3097 37.6223 82.7262 36.6656 82.7262 35.4855C82.7262 34.3053 78.3097 33.3486 72.8617 33.3486C67.4137 33.3486 62.9973 34.3053 62.9973 35.4855C62.9973 36.6656 67.4137 37.6223 72.8617 37.6223Z" fill="#FDE4C6"/>
<path id="Vector_31" d="M72.8617 37.5645C67.5052 37.5645 63.1491 36.6392 63.0045 35.4869C63.0007 35.506 62.9982 35.5253 62.9973 35.5448C62.9973 36.726 67.4141 37.6831 72.8617 37.6831C78.3094 37.6831 82.7262 36.726 82.7262 35.5448C82.7252 35.5253 82.7228 35.506 82.719 35.4869C82.5744 36.6392 78.2183 37.5645 72.8617 37.5645Z" fill="#FDE4C6"/>
<path id="Vector_32" d="M56.3179 55.6582V60.9656C56.3174 61.1563 56.2578 61.3422 56.1472 61.4976C56.0366 61.653 55.8806 61.7702 55.7005 61.8331C55.5077 61.9005 55.274 61.9767 54.9993 62.0615C53.409 62.5444 50.4596 63.2282 46.4519 63.2282C41.7836 63.2282 38.5421 62.4027 37.2337 61.9979C37.0463 61.9396 36.8824 61.8228 36.7661 61.6646C36.6499 61.5064 36.5872 61.3152 36.5875 61.1189V55.6582H56.3179Z" fill="#FFB669"/>
<path id="Vector_33" opacity="0.2" d="M56.3178 55.6582V60.9656C56.3174 61.1563 56.2578 61.3422 56.1472 61.4976C56.0366 61.653 55.8805 61.7702 55.7005 61.8331C55.5077 61.9005 55.274 61.9767 54.9993 62.0615C55.1438 61.4066 55.4157 60.782 55.5646 60.1271C55.7073 59.4951 55.7313 58.8421 55.6354 58.2013C55.6213 58.0062 55.551 57.8194 55.433 57.6635C55.1742 57.3743 54.7101 57.4264 54.3299 57.5001C50.0907 58.3099 45.7566 58.5013 41.4626 58.0683C40.7862 58.006 40.1145 57.9007 39.4515 57.7531C38.4019 57.5088 37.4043 57.1098 36.5831 56.4115V55.6582H56.3178Z" fill="black"/>
<path id="Vector_34" d="M46.4519 57.7907C51.8999 57.7907 56.3164 56.834 56.3164 55.6538C56.3164 54.4737 51.8999 53.517 46.4519 53.517C41.0039 53.517 36.5875 54.4737 36.5875 55.6538C36.5875 56.834 41.0039 57.7907 46.4519 57.7907Z" fill="#FDE4C6"/>
<path id="Vector_35" d="M46.449 57.6736C41.0925 57.6736 36.7364 56.7483 36.5918 55.5946C36.588 55.6142 36.5855 55.634 36.5846 55.6539C36.5846 56.8351 41.0014 57.7907 46.449 57.7907C51.8967 57.7907 56.3135 56.8351 56.3135 55.6539C56.3135 55.6336 56.3135 55.6148 56.3135 55.5946C56.166 56.7483 51.8099 57.6736 46.449 57.6736Z" fill="#FDE4C6"/>
<path id="Vector_36" d="M55.8943 55.9821C49.7459 57.9744 43.4476 57.9744 36.9995 55.9821C36.8823 55.9469 36.7793 55.8755 36.7052 55.7781C36.6312 55.6807 36.59 55.5623 36.5875 55.4399V54.2833H56.299V55.4399C56.297 55.5614 56.2569 55.6791 56.1842 55.7764C56.1116 55.8737 56.0101 55.9457 55.8943 55.9821Z" fill="#FDE4C6"/>
<path id="Vector_37" d="M56.3179 49.2462V54.5536C56.3174 54.7443 56.2578 54.9302 56.1472 55.0856C56.0366 55.241 55.8806 55.3582 55.7005 55.4211C55.5097 55.4876 55.2754 55.5657 54.9993 55.6495C53.409 56.131 50.4596 56.8163 46.4519 56.8163C41.7836 56.8163 38.5421 55.9893 37.2337 55.5845C37.0463 55.5266 36.8823 55.4101 36.766 55.2522C36.6497 55.0942 36.5871 54.9031 36.5875 54.7069V49.2462H56.3179Z" fill="#FFB669"/>
<path id="Vector_38" opacity="0.2" d="M56.3178 49.2463V54.5537C56.3174 54.7444 56.2578 54.9303 56.1472 55.0857C56.0366 55.2411 55.8805 55.3583 55.7005 55.4212C55.5096 55.4877 55.2754 55.5658 54.9993 55.6496C55.1438 54.9947 55.4157 54.3687 55.5646 53.7152C55.7073 53.0832 55.7313 52.4302 55.6354 51.7894C55.622 51.5942 55.5516 51.4072 55.433 51.2516C55.1742 50.9624 54.7101 51.0145 54.3299 51.0868C50.0908 51.8971 45.7567 52.0889 41.4626 51.6564C40.7862 51.5936 40.1145 51.4878 39.4515 51.3398C38.4019 51.0969 37.4043 50.6979 36.5831 49.9996V49.2449L56.3178 49.2463Z" fill="black"/>
<path id="Vector_39" d="M46.4519 51.3816C51.8999 51.3816 56.3164 50.4249 56.3164 49.2448C56.3164 48.0646 51.8999 47.1079 46.4519 47.1079C41.0039 47.1079 36.5875 48.0646 36.5875 49.2448C36.5875 50.4249 41.0039 51.3816 46.4519 51.3816Z" fill="#FDE4C6"/>
<path id="Vector_40" d="M46.449 51.2659C41.0925 51.2659 36.7364 50.3406 36.5918 49.1869C36.588 49.2064 36.5855 49.2263 36.5846 49.2462C36.5846 50.4259 41.0014 51.383 46.449 51.383C51.8967 51.383 56.3135 50.4259 56.3135 49.2462C56.3135 49.2259 56.3135 49.2071 56.3135 49.1869C56.166 50.3406 51.8099 51.2659 46.449 51.2659Z" fill="#FDE4C6"/>
<path id="Vector_41" d="M55.8943 49.4617C49.7459 51.454 43.4476 51.454 36.9995 49.4617C36.8823 49.4266 36.7793 49.3551 36.7052 49.2577C36.6312 49.1603 36.59 49.0419 36.5875 48.9196V47.7629H56.299V48.9196C56.297 49.041 56.2569 49.1587 56.1842 49.256C56.1116 49.3533 56.0101 49.4253 55.8943 49.4617Z" fill="#FDE4C6"/>
<path id="Vector_42" d="M56.3179 42.4569V47.7643C56.3174 47.955 56.2578 48.1409 56.1472 48.2963C56.0366 48.4517 55.8806 48.5689 55.7005 48.6318C55.5077 48.7002 55.274 48.7764 54.9993 48.8602C53.409 49.3431 50.4596 50.0269 46.4519 50.0269C41.7836 50.0269 38.5421 49.2014 37.2337 48.7966C37.0463 48.7383 36.8824 48.6215 36.7661 48.4633C36.6499 48.3051 36.5872 48.1139 36.5875 47.9176V42.4569H56.3179Z" fill="#FFB669"/>
<path id="Vector_43" opacity="0.2" d="M56.3178 42.457V47.7644C56.3174 47.9551 56.2578 48.141 56.1472 48.2964C56.0366 48.4518 55.8805 48.569 55.7005 48.6319C55.5077 48.7003 55.274 48.7765 54.9993 48.8603C55.1438 48.2054 55.4157 47.5808 55.5646 46.9259C55.7073 46.2944 55.7313 45.6418 55.6354 45.0016C55.622 44.8063 55.5516 44.6194 55.433 44.4637C55.1742 44.1746 54.7101 44.2266 54.3299 44.2989C50.0908 45.1092 45.7567 45.3011 41.4626 44.8686C40.7862 44.8057 40.1145 44.7 39.4515 44.5519C38.4019 44.309 37.4043 43.9086 36.5831 43.2117V42.4556L56.3178 42.457Z" fill="black"/>
<path id="Vector_44" d="M46.4519 44.5939C51.8999 44.5939 56.3164 43.6372 56.3164 42.457C56.3164 41.2769 51.8999 40.3202 46.4519 40.3202C41.0039 40.3202 36.5875 41.2769 36.5875 42.457C36.5875 43.6372 41.0039 44.5939 46.4519 44.5939Z" fill="#FDE4C6"/>
<path id="Vector_45" d="M46.449 44.4766C41.0925 44.4766 36.7364 43.5513 36.5918 42.399C36.588 42.4181 36.5855 42.4375 36.5846 42.4569C36.5846 43.6381 41.0014 44.5952 46.449 44.5952C51.8967 44.5952 56.3135 43.6381 56.3135 42.4569C56.3135 42.4381 56.3135 42.4178 56.3135 42.399C56.166 43.5513 51.8099 44.4766 46.449 44.4766Z" fill="#B8CEFF"/>
<path id="Vector_46" d="M55.8943 42.5018C49.7459 44.4921 43.4476 44.4921 36.9995 42.5018C36.8823 42.4666 36.7793 42.3952 36.7052 42.2978C36.6312 42.2003 36.59 42.0819 36.5875 41.9596V40.803H56.299V41.9596C56.297 42.081 56.2569 42.1987 56.1842 42.2961C56.1116 42.3934 56.0101 42.4653 55.8943 42.5018Z" fill="#FDE4C6"/>
<path id="Vector_47" d="M56.3179 35.4869V40.7944C56.3174 40.9851 56.2578 41.171 56.1472 41.3263C56.0366 41.4817 55.8806 41.5989 55.7005 41.6618C55.5097 41.7283 55.2754 41.8064 54.9993 41.8903C53.409 42.3717 50.4596 43.057 46.4519 43.057C41.7836 43.057 38.5421 42.23 37.2337 41.8252C37.0463 41.7673 36.8823 41.6508 36.766 41.4929C36.6497 41.3349 36.5871 41.1438 36.5875 40.9476V35.4869H56.3179Z" fill="#FFB669"/>
<path id="Vector_48" d="M52.0875 40.495C52.0554 40.495 52.0236 40.4887 51.994 40.4764C51.9643 40.4641 51.9374 40.4461 51.9147 40.4234C51.892 40.4008 51.874 40.3738 51.8617 40.3442C51.8495 40.3145 51.8431 40.2828 51.8431 40.2507V39.1866C51.8431 39.1218 51.8689 39.0596 51.9147 39.0138C51.9605 38.968 52.0227 38.9423 52.0875 38.9423C52.1523 38.9423 52.2144 38.968 52.2602 39.0138C52.3061 39.0596 52.3318 39.1218 52.3318 39.1866V40.2507C52.3318 40.2828 52.3255 40.3145 52.3132 40.3442C52.3009 40.3738 52.2829 40.4008 52.2602 40.4234C52.2376 40.4461 52.2106 40.4641 52.181 40.4764C52.1513 40.4887 52.1196 40.495 52.0875 40.495Z" fill="#FDE4C6"/>
<path id="Vector_49" d="M52.9549 40.3202C52.89 40.3202 52.8277 40.2945 52.7817 40.2487C52.7356 40.2029 52.7095 40.1408 52.7092 40.0758V39.0002C52.7095 38.9353 52.7356 38.8731 52.7817 38.8273C52.8277 38.7815 52.89 38.7559 52.9549 38.7559C53.0197 38.7559 53.0819 38.7816 53.1277 38.8274C53.1735 38.8732 53.1993 38.9354 53.1993 39.0002V40.0758C53.1993 40.1406 53.1735 40.2028 53.1277 40.2486C53.0819 40.2944 53.0197 40.3202 52.9549 40.3202Z" fill="#FDE4C6"/>
<path id="Vector_50" d="M53.7718 40.0151C53.7397 40.0151 53.7079 40.0088 53.6783 39.9965C53.6486 39.9842 53.6217 39.9662 53.599 39.9435C53.5764 39.9208 53.5583 39.8939 53.5461 39.8643C53.5338 39.8346 53.5275 39.8028 53.5275 39.7708V38.8122C53.5275 38.7801 53.5338 38.7483 53.5461 38.7187C53.5583 38.6891 53.5764 38.6621 53.599 38.6394C53.6217 38.6167 53.6486 38.5988 53.6783 38.5865C53.7079 38.5742 53.7397 38.5679 53.7718 38.5679C53.8039 38.5679 53.8356 38.5742 53.8653 38.5865C53.8949 38.5988 53.9219 38.6167 53.9446 38.6394C53.9673 38.6621 53.9853 38.6891 53.9976 38.7187C54.0098 38.7483 54.0162 38.7801 54.0162 38.8122V39.7708C54.0162 39.8028 54.0098 39.8346 53.9976 39.8643C53.9853 39.8939 53.9673 39.9208 53.9446 39.9435C53.9219 39.9662 53.8949 39.9842 53.8653 39.9965C53.8356 40.0088 53.8039 40.0151 53.7718 40.0151Z" fill="#FDE4C6"/>
<path id="Vector_51" opacity="0.2" d="M56.3178 35.487V40.7945C56.3174 40.9852 56.2578 41.1711 56.1472 41.3264C56.0366 41.4818 55.8805 41.599 55.7005 41.6619C55.5096 41.7284 55.2754 41.8065 54.9993 41.8904C55.1438 41.2354 55.4157 40.6094 55.5646 39.9559C55.7073 39.3239 55.7313 38.6709 55.6354 38.0302C55.622 37.8349 55.5516 37.6479 55.433 37.4923C55.1742 37.2032 54.7101 37.2552 54.3299 37.3275C50.0908 38.1378 45.7567 38.3297 41.4626 37.8971C40.7862 37.8343 40.1145 37.7286 39.4515 37.5805C38.4019 37.3376 37.4043 36.9372 36.5831 36.2403V35.4856L56.3178 35.487Z" fill="black"/>
<path id="Vector_52" d="M46.4519 37.6223C51.8999 37.6223 56.3164 36.6656 56.3164 35.4855C56.3164 34.3053 51.8999 33.3486 46.4519 33.3486C41.0039 33.3486 36.5875 34.3053 36.5875 35.4855C36.5875 36.6656 41.0039 37.6223 46.4519 37.6223Z" fill="#FDE4C6"/>
<path id="Vector_53" d="M46.449 37.5645C41.0925 37.5645 36.7364 36.6392 36.5918 35.4869C36.588 35.506 36.5855 35.5253 36.5846 35.5448C36.5846 36.726 41.0014 37.6831 46.449 37.6831C51.8967 37.6831 56.3135 36.726 56.3135 35.5448C56.3135 35.526 56.3135 35.5057 56.3135 35.4869C56.166 36.6392 51.8099 37.5645 46.449 37.5645Z" fill="#B8CEFF"/>
<path id="Vector_54" d="M71.1716 58.2997V64.9502C71.1711 65.1894 71.0964 65.4225 70.9578 65.6175C70.8193 65.8124 70.6238 65.9596 70.3981 66.0389C70.1596 66.1242 69.8661 66.221 69.5205 66.328C67.5355 66.9324 63.8329 67.7897 58.8103 67.7897C52.9593 67.7897 48.8981 66.756 47.2586 66.2485C47.0241 66.1748 46.8192 66.0282 46.6736 65.8301C46.528 65.632 46.4493 65.3927 46.449 65.1468V58.2997H71.1716Z" fill="#FFB669"/>
<path id="Vector_55" opacity="0.2" d="M71.1716 58.2997V64.9502C71.1711 65.1894 71.0964 65.4225 70.9578 65.6175C70.8193 65.8124 70.6238 65.9597 70.3981 66.0389C70.1596 66.1242 69.8661 66.221 69.5205 66.328C69.6969 65.5083 70.0425 64.7247 70.229 63.9049C70.4075 63.113 70.4379 62.2949 70.3186 61.4919C70.3009 61.2474 70.2125 61.0134 70.0642 60.8182C69.7389 60.4524 69.162 60.5291 68.6805 60.6115C63.3708 61.6269 57.9419 61.8675 52.5631 61.3257C51.7151 61.2471 50.873 61.1148 50.0417 60.9295C48.7275 60.6245 47.4784 60.1228 46.449 59.2496V58.3026L71.1716 58.2997Z" fill="black"/>
<path id="Vector_56" d="M58.8132 60.9773C65.6402 60.9773 71.1745 59.7785 71.1745 58.2998C71.1745 56.821 65.6402 55.6222 58.8132 55.6222C51.9862 55.6222 46.4519 56.821 46.4519 58.2998C46.4519 59.7785 51.9862 60.9773 58.8132 60.9773Z" fill="#FDE4C6"/>
<path id="Vector_57" d="M58.8132 60.8313C52.1005 60.8313 46.6413 59.6746 46.4606 58.2289C46.4562 58.2533 46.4533 58.2779 46.4519 58.3026C46.4519 59.7816 51.9863 60.9816 58.8132 60.9816C65.6401 60.9816 71.1745 59.7816 71.1745 58.3026C71.173 58.2779 71.1701 58.2533 71.1658 58.2289C70.9851 59.6718 65.5331 60.8313 58.8132 60.8313Z" fill="#FDE4C6"/>
<path id="Vector_58" d="M70.6454 58.7117C62.9346 61.2071 55.0422 61.2071 46.968 58.7117C46.821 58.6679 46.6918 58.5784 46.599 58.4562C46.5062 58.3341 46.4547 58.1856 46.4519 58.0322V56.5864H71.1514V58.0322C71.1493 58.1843 71.0992 58.3318 71.0083 58.4539C70.9175 58.5759 70.7905 58.6661 70.6454 58.7117Z" fill="#FDE4C6"/>
<path id="Vector_59" d="M71.1716 50.2699V56.9204C71.1711 57.1596 71.0964 57.3927 70.9578 57.5877C70.8193 57.7826 70.6238 57.9299 70.3981 58.0091C70.1596 58.0944 69.8661 58.1913 69.5205 58.2983C67.5355 58.9026 63.8329 59.7599 58.8103 59.7599C52.9593 59.7599 48.8981 58.7262 47.2586 58.2187C47.0241 58.145 46.8192 57.9984 46.6736 57.8003C46.528 57.6022 46.4493 57.3629 46.449 57.1171V50.2699H71.1716Z" fill="#FFB669"/>
<path id="Vector_60" opacity="0.2" d="M71.1716 50.2699V56.9204C71.1711 57.1596 71.0964 57.3927 70.9578 57.5877C70.8193 57.7826 70.6238 57.9299 70.3981 58.0091C70.1596 58.0944 69.8661 58.1913 69.5205 58.2983C69.6969 57.4785 70.0425 56.6949 70.229 55.8737C70.4075 55.0823 70.4379 54.2646 70.3186 53.4622C70.3009 53.2177 70.2125 52.9836 70.0642 52.7884C69.7389 52.4227 69.162 52.4906 68.6805 52.5817C63.3708 53.5971 57.9419 53.8377 52.5631 53.2959C51.7151 53.2173 50.873 53.085 50.0417 52.8997C48.7275 52.5947 47.4784 52.093 46.449 51.2198V50.2728L71.1716 50.2699Z" fill="black"/>
<path id="Vector_61" d="M58.8132 52.9474C65.6402 52.9474 71.1745 51.7486 71.1745 50.2698C71.1745 48.7911 65.6402 47.5923 58.8132 47.5923C51.9862 47.5923 46.4519 48.7911 46.4519 50.2698C46.4519 51.7486 51.9862 52.9474 58.8132 52.9474Z" fill="#FDE4C6"/>
<path id="Vector_62" d="M58.8132 52.8015C52.1005 52.8015 46.6413 51.6449 46.4606 50.1991C46.4562 50.2235 46.4533 50.2481 46.4519 50.2728C46.4519 51.7519 51.9863 52.9518 58.8132 52.9518C65.6401 52.9518 71.1745 51.7519 71.1745 50.2728C71.173 50.2481 71.1701 50.2235 71.1658 50.1991C70.9851 51.642 65.5331 52.8015 58.8132 52.8015Z" fill="#FDE4C6"/>
<path id="Vector_63" d="M70.6454 50.5418C62.9346 53.0362 55.0422 53.0362 46.968 50.5418C46.821 50.4979 46.6918 50.4085 46.599 50.2863C46.5062 50.1642 46.4547 50.0156 46.4519 49.8623V48.4165H71.1514V49.8623C71.1493 50.0144 71.0992 50.1619 71.0083 50.2839C70.9175 50.4059 70.7905 50.4962 70.6454 50.5418Z" fill="#FDE4C6"/>
<path id="Vector_64" d="M71.1716 41.7629V48.4135C71.1708 48.6524 71.096 48.8852 70.9575 49.0799C70.819 49.2745 70.6235 49.4215 70.3981 49.5007C70.1596 49.586 69.8661 49.6828 69.5205 49.7898C67.5355 50.3927 63.8329 51.2515 58.8103 51.2515C52.9593 51.2515 48.8981 50.2163 47.2586 49.7089C47.0243 49.6352 46.8196 49.4889 46.674 49.2911C46.5285 49.0932 46.4496 48.8542 46.449 48.6086V41.7629H71.1716Z" fill="#FFB669"/>
<path id="Vector_65" opacity="0.2" d="M71.1716 41.7629V48.4135C71.1708 48.6524 71.096 48.8852 70.9575 49.0799C70.819 49.2745 70.6235 49.4215 70.3981 49.5007C70.1596 49.586 69.8661 49.6828 69.5205 49.7898C69.6969 48.9686 70.0425 48.185 70.229 47.3653C70.4075 46.5734 70.4379 45.7553 70.3186 44.9523C70.3005 44.7079 70.2122 44.4739 70.0642 44.2786C69.7389 43.9142 69.162 43.9894 68.6805 44.0733C63.3706 45.0875 57.9418 45.3276 52.5631 44.786C51.7151 44.7074 50.873 44.5751 50.0417 44.3899C48.7275 44.0848 47.4784 43.5846 46.449 42.7099V41.7629H71.1716Z" fill="black"/>
<path id="Vector_66" d="M58.8132 44.4406C65.6402 44.4406 71.1745 43.2418 71.1745 41.763C71.1745 40.2842 65.6402 39.0854 58.8132 39.0854C51.9862 39.0854 46.4519 40.2842 46.4519 41.763C46.4519 43.2418 51.9862 44.4406 58.8132 44.4406Z" fill="#FDE4C6"/>
<path id="Vector_67" d="M58.8132 44.2945C52.1005 44.2945 46.6413 43.1379 46.4606 41.6921C46.4562 41.7165 46.4533 41.7411 46.4519 41.7659C46.4519 43.2449 51.9863 44.4434 58.8132 44.4434C65.6401 44.4434 71.1745 43.2449 71.1745 41.7659C71.1731 41.7411 71.1702 41.7165 71.1658 41.6921C70.9851 43.135 65.5331 44.2945 58.8132 44.2945Z" fill="#FDE4C6"/>
<path id="Vector_68" d="M70.6454 41.8251C62.9346 44.3205 55.0422 44.3205 46.968 41.8251C46.8213 41.7814 46.6922 41.6921 46.5994 41.5702C46.5067 41.4484 46.455 41.3002 46.4519 41.1471V39.7013H71.1514V41.1471C71.149 41.2989 71.0988 41.4461 71.0079 41.5679C70.9171 41.6896 70.7902 41.7796 70.6454 41.8251Z" fill="#FDE4C6"/>
<path id="Vector_69" d="M71.1716 33.0291V39.6796C71.1711 39.9187 71.0964 40.1519 70.9578 40.3468C70.8193 40.5418 70.6238 40.689 70.3981 40.7683C70.1596 40.8521 69.8661 40.949 69.5205 41.0574C67.5355 41.6617 63.8329 42.5191 58.8103 42.5191C52.9593 42.5191 48.8981 41.4839 47.2586 40.9764C47.0243 40.9028 46.8196 40.7564 46.674 40.5586C46.5285 40.3608 46.4496 40.1218 46.449 39.8762V33.0291H71.1716Z" fill="#FFB669"/>
<path id="Vector_70" d="M65.8744 39.3051C65.7932 39.3048 65.7155 39.2723 65.6581 39.2149C65.6007 39.1575 65.5683 39.0798 65.5679 38.9986V37.6656C65.5683 37.5845 65.6007 37.5067 65.6581 37.4493C65.7155 37.3919 65.7932 37.3595 65.8744 37.3591C65.9557 37.3591 66.0336 37.3914 66.0911 37.4489C66.1486 37.5064 66.1809 37.5843 66.1809 37.6656V38.9986C66.1809 39.0799 66.1486 39.1579 66.0911 39.2154C66.0336 39.2728 65.9557 39.3051 65.8744 39.3051Z" fill="#FDE4C6"/>
<path id="Vector_71" d="M66.9645 39.0853C66.8832 39.0853 66.8053 39.053 66.7478 38.9956C66.6903 38.9381 66.658 38.8601 66.658 38.7788V37.4314C66.658 37.3501 66.6903 37.2721 66.7478 37.2146C66.8053 37.1572 66.8832 37.1249 66.9645 37.1249C67.0458 37.1249 67.1238 37.1572 67.1813 37.2146C67.2387 37.2721 67.271 37.3501 67.271 37.4314V38.7788C67.271 38.8601 67.2387 38.9381 67.1813 38.9956C67.1238 39.053 67.0458 39.0853 66.9645 39.0853Z" fill="#FDE4C6"/>
<path id="Vector_72" d="M67.991 38.7024C67.9098 38.702 67.8321 38.6696 67.7747 38.6122C67.7173 38.5548 67.6849 38.4771 67.6845 38.3959V37.1959C67.6849 37.1147 67.7173 37.037 67.7747 36.9796C67.8321 36.9222 67.9098 36.8898 67.991 36.8894C68.0722 36.8898 68.1499 36.9222 68.2073 36.9796C68.2647 37.037 68.2971 37.1147 68.2975 37.1959V38.3959C68.2975 38.4772 68.2652 38.5551 68.2077 38.6126C68.1502 38.6701 68.0723 38.7024 67.991 38.7024Z" fill="#FDE4C6"/>
<path id="Vector_73" opacity="0.2" d="M71.1716 33.0291V39.6796C71.1711 39.9187 71.0964 40.1519 70.9578 40.3468C70.8193 40.5418 70.6238 40.689 70.3981 40.7683C70.1596 40.8521 69.8661 40.949 69.5205 41.0574C69.6969 40.2362 70.0425 39.4526 70.229 38.6328C70.4075 37.8414 70.4379 37.0238 70.3186 36.2213C70.3008 35.9764 70.2124 35.7419 70.0642 35.5461C69.7389 35.1818 69.162 35.257 68.6805 35.3408C63.3706 36.3551 57.9418 36.5951 52.5631 36.0536C51.7151 35.975 50.873 35.8427 50.0417 35.6575C48.7275 35.3524 47.4784 34.8522 46.449 33.9775V33.0319L71.1716 33.0291Z" fill="black"/>
<path id="Vector_74" d="M58.8132 35.7053C65.6402 35.7053 71.1745 34.5066 71.1745 33.0278C71.1745 31.549 65.6402 30.3502 58.8132 30.3502C51.9862 30.3502 46.4519 31.549 46.4519 33.0278C46.4519 34.5066 51.9862 35.7053 58.8132 35.7053Z" fill="#FDE4C6"/>
<path id="Vector_75" d="M58.8132 35.633C52.1005 35.633 46.6413 34.4764 46.4606 33.0306C46.4562 33.055 46.4533 33.0796 46.4519 33.1044C46.4519 34.5834 51.9863 35.7819 58.8132 35.7819C65.6401 35.7819 71.1716 34.5819 71.1716 33.1044C71.1702 33.0796 71.1673 33.055 71.1629 33.0306C70.9851 34.4735 65.5331 35.633 58.8132 35.633Z" fill="#FDE4C6"/>
<path id="Vector_76" d="M15.2739 112.405C23.4695 112.405 30.1133 105.761 30.1133 97.5653C30.1133 89.3698 23.4695 82.726 15.2739 82.726C7.07838 82.726 0.43457 89.3698 0.43457 97.5653C0.43457 105.761 7.07838 112.405 15.2739 112.405Z" fill="#CFD7E2"/>
<path id="Vector_77" d="M15.2739 110.755C12.2224 110.755 9.26531 109.697 6.90649 107.761C4.54766 105.825 2.93306 103.131 2.33778 100.138C1.7425 97.1454 2.20336 94.0387 3.64186 91.3475C5.08037 88.6563 7.40753 86.5472 10.2268 85.3794C13.046 84.2117 16.1829 84.0576 19.103 84.9435C22.0231 85.8293 24.5458 87.7003 26.2411 90.2375C27.9364 92.7748 28.6995 95.8214 28.4003 98.8582C28.1012 101.895 26.7583 104.734 24.6006 106.892C23.3788 108.121 21.9254 109.095 20.3244 109.758C18.7234 110.421 17.0068 110.76 15.2739 110.755Z" fill="white"/>
<path id="Vector_78" d="M28.189 97.5668C28.1946 99.9542 27.5342 102.296 26.282 104.329C25.8178 105.08 25.2782 105.783 24.6715 106.425C24.5833 106.518 24.4965 106.607 24.4054 106.698C21.9835 109.12 18.6989 110.48 15.274 110.48C11.8491 110.48 8.56446 109.12 6.14249 106.698C5.99791 106.554 5.85334 106.409 5.71744 106.253C4.30624 104.701 3.29446 102.828 2.76961 100.797C2.24475 98.7653 2.22263 96.6368 2.70515 94.5951C3.18768 92.5534 4.16031 90.66 5.53894 89.0786C6.91757 87.4973 8.66068 86.2755 10.6175 85.5191C12.5744 84.7627 14.686 84.4944 16.7698 84.7374C18.8537 84.9804 20.8469 85.7274 22.5772 86.9138C24.3075 88.1001 25.7228 89.6901 26.7006 91.5463C27.6783 93.4024 28.1892 95.4688 28.189 97.5668Z" fill="#FFB669"/>
<path id="Vector_79" opacity="0.2" d="M15.2739 106.353C13.2414 106.352 11.2721 105.646 9.70151 104.356C8.13089 103.066 7.05611 101.271 6.66028 99.2777C6.26444 97.2841 6.57205 95.215 7.53067 93.4227C8.48928 91.6305 10.0396 90.2261 11.9176 89.4487C13.7955 88.6713 15.8849 88.5691 17.8298 89.1594C19.7747 89.7497 21.4547 90.996 22.5837 92.6861C23.7127 94.3762 24.2209 96.4054 24.0216 98.4281C23.8223 100.451 22.9279 102.342 21.4907 103.779C20.6763 104.598 19.7074 105.247 18.6402 105.689C17.5731 106.131 16.4289 106.356 15.2739 106.353Z" fill="#F5F5FA"/>
<path id="Vector_80" opacity="0.2" d="M15.274 106.243C13.2671 106.243 11.3225 105.546 9.77129 104.273C8.22011 103 7.15839 101.228 6.76698 99.2601C6.37557 97.2918 6.6787 95.2487 7.62473 93.4788C8.57077 91.709 10.1012 90.3219 11.9552 89.5539C13.8093 88.7859 15.8723 88.6845 17.7927 89.267C19.7131 89.8494 21.3722 91.0797 22.4873 92.7482C23.6023 94.4167 24.1044 96.4202 23.9079 98.4174C23.7114 100.415 22.8286 102.282 21.4098 103.701C20.6059 104.509 19.6497 105.15 18.5965 105.587C17.5432 106.023 16.414 106.246 15.274 106.243Z" fill="#F5F5FA"/>
<path id="Vector_81" d="M15.274 105.143C13.5209 105.143 11.8221 104.535 10.467 103.423C9.11195 102.31 8.18439 100.763 7.84242 99.0434C7.50046 97.3241 7.7652 95.5393 8.5916 93.9933C9.41801 92.4473 10.7549 91.2356 12.3745 90.5648C13.9941 89.8939 15.7962 89.8054 17.4738 90.3144C19.1513 90.8233 20.6005 91.8981 21.5744 93.3557C22.5483 94.8133 22.9867 96.5635 22.8149 98.3081C22.643 100.053 21.8716 101.684 20.632 102.923C19.93 103.629 19.095 104.189 18.1753 104.57C17.2556 104.951 16.2695 105.145 15.274 105.143Z" fill="#F5F5F5"/>
<path id="Vector_82" opacity="0.1" d="M9.9159 92.6843C10.9613 91.6391 12.2895 90.9226 13.7371 90.6228C15.1846 90.3231 16.6882 90.4534 18.0626 90.9975C19.437 91.5417 20.6223 92.476 21.4724 93.6853C22.3225 94.8947 22.8002 96.3263 22.8468 97.8038C22.8468 97.7242 22.8468 97.6462 22.8468 97.5667C22.8468 95.557 22.0485 93.6297 20.6275 92.2087C19.2065 90.7877 17.2792 89.9894 15.2696 89.9894C13.26 89.9894 11.3326 90.7877 9.91163 92.2087C8.49062 93.6297 7.69229 95.557 7.69229 97.5667C7.69229 97.6462 7.69229 97.7242 7.69229 97.8038C7.74909 95.8752 8.54523 94.0422 9.9159 92.6843Z" fill="black"/>
<path id="Vector_83" opacity="0.1" d="M15.274 100.153C14.6756 100.153 14.0957 99.9457 13.6332 99.5661C13.1706 99.1865 12.8539 98.6582 12.7372 98.0713C12.6204 97.4844 12.7108 96.8752 12.9929 96.3475C13.2749 95.8197 13.7313 95.4061 14.2841 95.1771C14.8369 94.9481 15.4521 94.9179 16.0247 95.0916C16.5974 95.2653 17.0921 95.6322 17.4245 96.1297C17.757 96.6273 17.9066 97.2247 17.848 97.8202C17.7893 98.4157 17.526 98.9725 17.1029 99.3956C16.8633 99.6366 16.5783 99.8276 16.2643 99.9576C15.9504 100.088 15.6138 100.154 15.274 100.153Z" fill="black"/>
<g id="Group" opacity="0.6">
<path id="Vector_84" d="M15.274 87.2468C15.2231 87.2465 15.1744 87.2261 15.1384 87.1901C15.1025 87.1541 15.0821 87.1054 15.0817 87.0546V85.6001C15.0817 85.549 15.1019 85.4999 15.138 85.4636C15.174 85.4273 15.2229 85.4068 15.274 85.4064C15.3252 85.4068 15.374 85.4273 15.4101 85.4636C15.4461 85.4999 15.4663 85.549 15.4663 85.6001V87.0546C15.4659 87.1054 15.4455 87.1541 15.4096 87.1901C15.3736 87.2261 15.3249 87.2465 15.274 87.2468Z" fill="#FFB100"/>
<path id="Vector_85" d="M8.64078 89.6612C8.62136 89.6776 8.59891 89.6899 8.5747 89.6975C8.5505 89.7051 8.52503 89.7078 8.49977 89.7055C8.4745 89.7032 8.44993 89.696 8.42748 89.6842C8.40503 89.6723 8.38517 89.6562 8.36899 89.6367L7.43355 88.5234C7.40096 88.484 7.38528 88.4334 7.38989 88.3825C7.39449 88.3315 7.41902 88.2845 7.45815 88.2516C7.49735 88.2188 7.54791 88.2029 7.59881 88.2072C7.64972 88.2116 7.69684 88.2358 7.72994 88.2747L8.6639 89.3894C8.6803 89.4088 8.69275 89.4312 8.70047 89.4553C8.70819 89.4795 8.71105 89.5049 8.7089 89.5302C8.70675 89.5554 8.69963 89.58 8.68794 89.6025C8.67625 89.625 8.66022 89.645 8.64078 89.6612Z" fill="#FFB100"/>
<path id="Vector_86" d="M5.11169 95.7741C5.10253 95.8244 5.0738 95.8691 5.03181 95.8984C4.98983 95.9276 4.93799 95.9391 4.88759 95.9303L3.45485 95.6787C3.4045 95.6695 3.35982 95.6408 3.33057 95.5988C3.30131 95.5568 3.28985 95.505 3.29869 95.4546C3.30785 95.4042 3.33655 95.3596 3.37853 95.3303C3.42052 95.3011 3.47239 95.2896 3.52279 95.2985L4.95409 95.5515C5.00441 95.5603 5.04921 95.5887 5.07872 95.6303C5.10824 95.672 5.12009 95.7237 5.11169 95.7741Z" fill="#FFB100"/>
<path id="Vector_87" d="M6.33767 102.727C6.36251 102.771 6.36901 102.823 6.35578 102.873C6.34255 102.922 6.31062 102.964 6.26683 102.99L5.00613 103.713C4.98421 103.725 4.96 103.733 4.9349 103.737C4.90979 103.74 4.88427 103.738 4.85982 103.732C4.83537 103.725 4.81249 103.714 4.79244 103.698C4.77238 103.683 4.75557 103.664 4.74299 103.642C4.73031 103.62 4.72207 103.596 4.71877 103.57C4.71547 103.545 4.71717 103.52 4.72375 103.495C4.73033 103.471 4.74168 103.448 4.75714 103.428C4.7726 103.408 4.79186 103.391 4.81383 103.379L6.07309 102.656C6.11757 102.63 6.17041 102.623 6.22003 102.636C6.26964 102.65 6.31197 102.682 6.33767 102.727Z" fill="#FFB100"/>
<path id="Vector_88" d="M11.7507 107.264C11.7745 107.272 11.7963 107.286 11.8149 107.303C11.8335 107.32 11.8485 107.341 11.8591 107.363C11.8697 107.386 11.8757 107.411 11.8767 107.437C11.8777 107.462 11.8737 107.487 11.8649 107.511L11.3676 108.877C11.35 108.925 11.3141 108.964 11.2678 108.986C11.2215 109.007 11.1685 109.01 11.1203 108.993C11.0966 108.984 11.0748 108.971 11.0562 108.954C11.0376 108.936 11.0225 108.916 11.0119 108.893C11.0013 108.87 10.9953 108.845 10.9944 108.82C10.9934 108.794 10.9974 108.769 11.0061 108.745L11.5035 107.379C11.5211 107.331 11.5569 107.292 11.6033 107.27C11.6496 107.249 11.7026 107.246 11.7507 107.264Z" fill="#FFB100"/>
<path id="Vector_89" d="M18.8031 107.264C18.8512 107.246 18.9042 107.249 18.9505 107.27C18.9968 107.292 19.0327 107.331 19.0503 107.379L19.5476 108.745C19.5564 108.769 19.5604 108.794 19.5594 108.82C19.5584 108.845 19.5524 108.87 19.5418 108.893C19.5312 108.916 19.5162 108.936 19.4976 108.954C19.479 108.971 19.4572 108.984 19.4334 108.993C19.3853 109.01 19.3323 109.007 19.286 108.986C19.2397 108.964 19.2038 108.925 19.1862 108.877L18.6874 107.511C18.6702 107.463 18.6727 107.41 18.6943 107.363C18.716 107.317 18.7551 107.281 18.8031 107.264Z" fill="#FFB100"/>
<path id="Vector_90" d="M24.2102 102.727C24.2359 102.682 24.2782 102.65 24.3279 102.636C24.3775 102.623 24.4303 102.63 24.4748 102.656L25.7341 103.379C25.7781 103.404 25.8103 103.446 25.8236 103.496C25.8368 103.545 25.8301 103.597 25.8049 103.642C25.7792 103.686 25.7369 103.719 25.6873 103.732C25.6377 103.745 25.5848 103.738 25.5403 103.713L24.2811 102.99C24.2373 102.964 24.2054 102.922 24.1921 102.873C24.1789 102.823 24.1854 102.771 24.2102 102.727Z" fill="#FFB100"/>
<path id="Vector_91" d="M25.4363 95.7741C25.4319 95.7492 25.4325 95.7237 25.438 95.6991C25.4435 95.6744 25.4538 95.6511 25.4683 95.6304C25.4828 95.6098 25.5012 95.5921 25.5225 95.5786C25.5438 95.565 25.5676 95.5558 25.5925 95.5515L27.0252 95.2985C27.0756 95.2896 27.1275 95.3011 27.1695 95.3303C27.2114 95.3596 27.2401 95.4042 27.2493 95.4546C27.2582 95.505 27.2467 95.5568 27.2174 95.5988C27.1882 95.6408 27.1435 95.6695 27.0932 95.6787L25.6604 95.9303C25.61 95.9391 25.5582 95.9276 25.5162 95.8984C25.4742 95.8691 25.4455 95.8244 25.4363 95.7741Z" fill="#FFB100"/>
<path id="Vector_92" d="M21.9071 89.6612C21.8877 89.645 21.8716 89.625 21.8599 89.6025C21.8483 89.58 21.8411 89.5554 21.839 89.5302C21.8368 89.5049 21.8397 89.4795 21.8474 89.4553C21.8551 89.4312 21.8676 89.4088 21.884 89.3894L22.8179 88.2747C22.851 88.2358 22.8982 88.2116 22.9491 88.2072C23 88.2029 23.0505 88.2188 23.0897 88.2516C23.1289 88.2845 23.1534 88.3315 23.158 88.3825C23.1626 88.4334 23.1469 88.484 23.1143 88.5234L22.1789 89.6367C22.1627 89.6562 22.1428 89.6723 22.1204 89.6842C22.098 89.696 22.0734 89.7032 22.0481 89.7055C22.0229 89.7078 21.9974 89.7051 21.9732 89.6975C21.949 89.6899 21.9265 89.6776 21.9071 89.6612Z" fill="#FFB100"/>
</g>
<path id="Vector_93" opacity="0.1" d="M15.3737 99.4043C14.9819 99.4046 14.6022 99.2691 14.2992 99.0208C13.9961 98.7726 13.7886 98.4269 13.7119 98.0427C13.6352 97.6585 13.6942 97.2597 13.8786 96.9141C14.0631 96.5685 14.3617 96.2976 14.7236 96.1475C15.0854 95.9974 15.4881 95.9775 15.863 96.091C16.238 96.2046 16.5619 96.4447 16.7796 96.7704C16.9973 97.0961 17.0954 97.4872 17.057 97.877C17.0187 98.2669 16.8463 98.6314 16.5693 98.9084C16.4127 99.066 16.2264 99.1909 16.0211 99.276C15.8159 99.3611 15.5958 99.4047 15.3737 99.4043Z" fill="black"/>
<path id="Vector_94" d="M15.3101 99.2568C14.9194 99.2564 14.541 99.1206 14.2393 98.8725C13.9376 98.6245 13.7312 98.2795 13.6553 97.8963C13.5794 97.5131 13.6387 97.1155 13.8231 96.7711C14.0074 96.4268 14.3055 96.157 14.6664 96.0077C15.0274 95.8584 15.429 95.8389 15.8027 95.9525C16.1764 96.066 16.4992 96.3056 16.7161 96.6305C16.933 96.9554 17.0306 97.3454 16.9922 97.7341C16.9539 98.1228 16.7819 98.4862 16.5057 98.7624C16.349 98.9199 16.1627 99.0447 15.9575 99.1296C15.7522 99.2144 15.5322 99.2577 15.3101 99.2568Z" fill="#E29803"/>
<path id="Vector_95" opacity="0.1" d="M13.5911 99.961C13.5226 99.896 13.4678 99.8179 13.4301 99.7314C13.3924 99.6448 13.3725 99.5515 13.3715 99.4571C13.3706 99.3627 13.3886 99.269 13.4246 99.1817C13.4606 99.0944 13.5138 99.0153 13.581 98.9489L23.3674 89.336C23.4026 89.3023 23.4495 89.2836 23.4982 89.2836C23.547 89.2836 23.5938 89.3023 23.6291 89.336C23.6643 89.3697 23.6852 89.4158 23.6874 89.4646C23.6895 89.5133 23.6728 89.561 23.6406 89.5977L14.6046 99.9191C14.5418 99.9899 14.4653 100.047 14.3798 100.088C14.2942 100.129 14.2014 100.152 14.1068 100.156C14.0121 100.159 13.9177 100.144 13.8291 100.111C13.7405 100.077 13.6596 100.026 13.5911 99.961Z" fill="black"/>
<path id="Vector_96" d="M13.4205 99.6514C13.3521 99.5864 13.2975 99.5082 13.2599 99.4217C13.2223 99.3351 13.2025 99.2419 13.2015 99.1475C13.2006 99.0532 13.2186 98.9596 13.2544 98.8723C13.2903 98.785 13.3433 98.7058 13.4103 98.6394L23.1967 89.0279C23.232 88.9943 23.2788 88.9755 23.3276 88.9755C23.3763 88.9755 23.4232 88.9943 23.4584 89.0279C23.4937 89.0617 23.5146 89.1077 23.5167 89.1564C23.5189 89.2052 23.5021 89.2529 23.47 89.2896L14.4339 99.6095C14.371 99.6802 14.2945 99.7375 14.209 99.778C14.1235 99.8185 14.0306 99.8414 13.9361 99.8454C13.8415 99.8493 13.7472 99.8341 13.6586 99.8008C13.57 99.7675 13.489 99.7167 13.4205 99.6514Z" fill="#FFB100"/>
<path id="Vector_97" d="M24.6714 106.425C24.5832 106.517 24.4965 106.607 24.4054 106.698C21.9834 109.12 18.6988 110.48 15.2739 110.48C11.8491 110.48 8.56443 109.12 6.14245 106.698C5.99788 106.554 5.85331 106.409 5.71741 106.253C8.45891 104.2 11.7989 103.105 15.2235 103.136C18.6481 103.167 21.9676 104.323 24.6714 106.425Z" fill="#CFD7E2"/>
<path id="Vector_98" d="M97.1565 10.5966C93.7006 12.9474 89.9292 14.7971 85.9547 16.0905V33.1043C88.9532 36.8083 92.6616 39.4657 97.1565 40.9577C101.783 39.2358 105.561 36.6565 108.36 33.1043V16.0876C104.409 14.7357 100.645 12.8908 97.1565 10.5966Z" fill="#FFB669"/>
<path id="Vector_99" opacity="0.1" d="M97.1362 39.5221C95.2038 38.8689 93.368 37.9586 91.6785 36.8156C89.9968 35.6639 88.4717 34.2988 87.1416 32.7544V17.5739C90.6616 16.3986 94.0279 14.805 97.168 12.8274C100.324 14.7579 103.677 16.3447 107.171 17.5608V32.7631C105.889 34.2629 104.407 35.5793 102.766 36.6753C101.007 37.84 99.1172 38.7954 97.1362 39.5221Z" fill="black"/>
<path id="Vector_100" d="M107.171 17.1778V32.3815C105.889 33.8785 104.407 35.192 102.766 36.285C101.007 37.4503 99.1175 38.4057 97.1362 39.1317C95.2035 38.4812 93.3676 37.5722 91.6785 36.4296C89.9971 35.2781 88.4721 33.9135 87.1416 32.3699V17.1893C90.6616 16.014 94.0279 14.4205 97.168 12.4429C100.324 14.3737 103.677 15.961 107.171 17.1778Z" fill="#FAFAFA"/>
<path id="Vector_101" opacity="0.1" d="M107.171 17.1776V17.6807C103.671 16.4363 100.317 14.8152 97.1666 12.8461C94.0333 14.8621 90.6664 16.4894 87.1402 17.6923V17.1877C90.6602 16.0125 94.0264 14.4189 97.1666 12.4413C100.323 14.3727 103.677 15.9605 107.171 17.1776Z" fill="black"/>
<path id="Vector_102" opacity="0.1" d="M101.388 23.5173V23.098H101.04V21.8417C101.04 20.8551 100.648 19.9089 99.9502 19.2113C99.2526 18.5136 98.3064 18.1217 97.3198 18.1217C96.3332 18.1217 95.387 18.5136 94.6894 19.2113C93.9918 19.9089 93.5998 20.8551 93.5998 21.8417V23.098H93.2991V23.5173C93.1639 23.5197 93.0304 23.5482 92.9059 23.6012C92.7105 23.6842 92.5438 23.8229 92.4268 24.0001C92.3098 24.1773 92.2476 24.385 92.248 24.5973V31.4734C92.248 31.7602 92.362 32.0353 92.5648 32.2381C92.7676 32.4409 93.0427 32.5548 93.3295 32.5548H101.359C101.646 32.5548 101.921 32.4409 102.124 32.2381C102.327 32.0353 102.441 31.7602 102.441 31.4734V24.5973C102.441 24.3154 102.331 24.0446 102.135 23.8428C101.938 23.6409 101.67 23.5241 101.388 23.5173ZM94.5078 21.8417C94.5078 21.0959 94.804 20.3806 95.3314 19.8533C95.8587 19.3259 96.574 19.0297 97.3198 19.0297C98.0656 19.0297 98.7808 19.3259 99.3082 19.8533C99.8356 20.3806 100.132 21.0959 100.132 21.8417V23.098H99.86V23.5159H94.8287V23.098H94.5078V21.8417Z" fill="black"/>
<path id="Vector_103" d="M100.665 25.8175H93.2254V21.8417C93.2254 20.8551 93.6174 19.9089 94.315 19.2113C95.0126 18.5136 95.9588 18.1217 96.9454 18.1217C97.932 18.1217 98.8782 18.5136 99.5758 19.2113C100.273 19.9089 100.665 20.8551 100.665 21.8417V25.8175ZM94.1334 24.9096H99.7574V21.8417C99.7574 21.0959 99.4611 20.3806 98.9338 19.8533C98.4064 19.3259 97.6912 19.0297 96.9454 19.0297C96.1996 19.0297 95.4844 19.3259 94.957 19.8533C94.4296 20.3806 94.1334 21.0959 94.1334 21.8417V24.9096Z" fill="#CFD7E2"/>
<path id="Vector_104" d="M94.4557 23.0981H92.9261V23.8196H94.4557V23.0981Z" fill="#999999"/>
<path id="Vector_105" d="M101.015 23.0981H99.4855V23.8196H101.015V23.0981Z" fill="#999999"/>
<path id="Vector_106" d="M102.066 24.5974V31.4735C102.066 31.7603 101.952 32.0354 101.75 32.2382C101.547 32.441 101.272 32.5549 100.985 32.5549H92.955C92.6682 32.5549 92.3931 32.441 92.1903 32.2382C91.9875 32.0354 91.8736 31.7603 91.8736 31.4735V24.5974C91.8732 24.4553 91.9009 24.3145 91.9551 24.1831C92.0093 24.0518 92.089 23.9324 92.1895 23.8319C92.29 23.7314 92.4093 23.6518 92.5407 23.5975C92.6721 23.5433 92.8129 23.5156 92.955 23.516H100.985C101.127 23.5158 101.268 23.5436 101.399 23.5979C101.53 23.6522 101.649 23.7319 101.75 23.8323C101.85 23.9328 101.93 24.0521 101.984 24.1834C102.039 24.3146 102.066 24.4554 102.066 24.5974Z" fill="#FFB100"/>
<path id="Vector_107" d="M98.3766 27.5727C98.3769 27.3507 98.3248 27.1318 98.2243 26.9338C98.1239 26.7358 97.9781 26.5644 97.7988 26.4335C97.6196 26.3026 97.4118 26.2159 97.1927 26.1806C96.9735 26.1452 96.7491 26.1622 96.5377 26.2301C96.3264 26.298 96.1341 26.4149 95.9765 26.5713C95.819 26.7276 95.7006 26.919 95.6311 27.1299C95.5616 27.3407 95.5429 27.565 95.5766 27.7844C95.6102 28.0038 95.6953 28.2122 95.8249 28.3924V29.8917C95.8249 30.1962 95.9458 30.4881 96.1611 30.7034C96.3763 30.9187 96.6683 31.0396 96.9728 31.0396C97.1235 31.0396 97.2727 31.0099 97.4119 30.9522C97.5511 30.8945 97.6775 30.8099 97.784 30.7033C97.8905 30.5967 97.9749 30.4702 98.0324 30.3309C98.09 30.1916 98.1195 30.0424 98.1193 29.8917V28.3838C98.2872 28.1467 98.3771 27.8632 98.3766 27.5727Z" fill="#C78800"/>
<path id="Vector_108" opacity="0.1" d="M97.9184 29.8919V28.3927C98.064 28.1889 98.1527 27.9499 98.1752 27.7004C98.1977 27.451 98.1533 27.2 98.0465 26.9734C97.9397 26.7469 97.7744 26.5529 97.5676 26.4115C97.3608 26.2701 97.1201 26.1864 96.8702 26.1691H96.9656C97.2244 26.1693 97.478 26.2409 97.6988 26.3758C97.9196 26.5108 98.0989 26.704 98.217 26.9342C98.3352 27.1644 98.3877 27.4227 98.3686 27.6807C98.3496 27.9388 98.2599 28.1866 98.1092 28.397V29.8963C98.1094 30.0469 98.0799 30.1962 98.0224 30.3354C97.9648 30.4747 97.8804 30.6013 97.7739 30.7079C97.6675 30.8145 97.541 30.8991 97.4018 30.9568C97.2626 31.0145 97.1134 31.0442 96.9627 31.0442H96.8673C97.1554 31.0198 97.4237 30.8876 97.6186 30.674C97.8134 30.4603 97.9205 30.1811 97.9184 29.8919Z" fill="black"/>
<path id="Vector_109" opacity="0.05" d="M102.066 24.5975V31.4735C102.066 31.7604 101.952 32.0354 101.75 32.2382C101.547 32.441 101.272 32.555 100.985 32.555H99.075C99.1464 32.3928 99.2479 32.2456 99.3743 32.1213C99.9453 31.5097 100.675 30.9979 100.996 30.2273C101.15 29.8174 101.23 29.3839 101.235 28.9463C101.299 27.6809 101.169 26.4131 100.847 25.1873C100.748 24.8071 100.615 24.4095 100.31 24.1623C99.9526 23.8732 99.4523 23.8645 98.9926 23.8732L94.022 23.9238C93.6746 23.9417 93.3264 23.9061 92.9897 23.8182C92.8248 23.7698 92.669 23.6946 92.5285 23.5956C92.6626 23.539 92.8066 23.51 92.9521 23.5103H100.982C101.125 23.5097 101.266 23.5374 101.398 23.5919C101.53 23.6464 101.65 23.7265 101.751 23.8276C101.852 23.9287 101.932 24.0488 101.986 24.181C102.04 24.3131 102.067 24.4547 102.066 24.5975Z" fill="black"/>
<path id="Vector_110" d="M94.3789 97.4647C94.7617 93.5958 91.9356 90.1492 88.0667 89.7664C84.1978 89.3837 80.7512 92.2097 80.3684 96.0786C79.9857 99.9475 82.8117 103.394 86.6806 103.777C90.5495 104.16 93.9961 101.334 94.3789 97.4647Z" fill="#FFB669"/>
<path id="Vector_111" d="M105.023 102.938C108.243 102.938 110.854 100.327 110.854 97.107C110.854 93.8868 108.243 91.2762 105.023 91.2762C101.803 91.2762 99.1921 93.8868 99.1921 97.107C99.1921 100.327 101.803 102.938 105.023 102.938Z" fill="#FFB669"/>
<path id="Vector_112" d="M103.485 100.04C107.163 96.362 107.163 90.399 103.485 86.7211C99.807 83.0433 93.844 83.0433 90.1662 86.7212C86.4883 90.399 86.4883 96.362 90.1662 100.04C93.844 103.718 99.807 103.718 103.485 100.04Z" fill="#FFB669"/>
<path id="Vector_113" d="M103.814 103.83H87.4076C86.4831 103.83 85.5677 103.648 84.7135 103.294C83.8594 102.941 83.0833 102.422 82.4295 101.768C81.7758 101.115 81.2573 100.339 80.9037 99.4845C80.55 98.6304 80.368 97.7149 80.3682 96.7904H110.854C110.854 97.7149 110.672 98.6304 110.318 99.4845C109.964 100.339 109.446 101.115 108.792 101.768C108.139 102.422 107.362 102.941 106.508 103.294C105.654 103.648 104.739 103.83 103.814 103.83Z" fill="#FFB669"/>
<g id="Group_2" opacity="0.05">
<path id="Vector_114" d="M90.5739 97.441L92.4042 94.6073C92.417 94.5876 92.4242 94.5648 92.4251 94.5414C92.426 94.5179 92.4205 94.4946 92.4092 94.474C92.398 94.4534 92.3813 94.4363 92.3611 94.4243C92.3409 94.4124 92.3178 94.4062 92.2943 94.4063H90.7315C90.914 93.2411 91.4339 92.1549 92.227 91.2819C93.02 90.4089 94.0514 89.7874 95.1938 89.4941C96.3362 89.2008 97.5395 89.2486 98.655 89.6316C99.7705 90.0147 100.749 90.7161 101.471 91.6493C101.509 91.6979 101.564 91.7295 101.625 91.7374C101.687 91.7452 101.748 91.7286 101.797 91.6912C101.822 91.6726 101.842 91.6494 101.858 91.6228C101.873 91.5963 101.883 91.567 101.887 91.5366C101.891 91.5062 101.888 91.4753 101.88 91.4458C101.872 91.4162 101.858 91.3886 101.839 91.3644C101.058 90.3566 99.9975 89.6007 98.7899 89.1906C97.5824 88.7805 96.281 88.7343 95.0474 89.0578C93.8139 89.3812 92.7026 90.0601 91.8517 91.01C91.0008 91.9599 90.4479 93.139 90.2616 94.4006H88.6336C88.6103 94.4007 88.5874 94.4071 88.5674 94.4191C88.5473 94.4311 88.5309 94.4483 88.5198 94.4689C88.5088 94.4894 88.5034 94.5126 88.5043 94.5359C88.5053 94.5593 88.5125 94.5819 88.5252 94.6015L90.3541 97.4352C90.3656 97.4537 90.3815 97.4691 90.4004 97.48C90.4193 97.4908 90.4406 97.4968 90.4624 97.4974C90.4842 97.4979 90.5058 97.4931 90.5252 97.4832C90.5447 97.4734 90.5614 97.4589 90.5739 97.441Z" fill="black"/>
<path id="Vector_115" d="M103.829 96.0357L101.998 93.2006C101.986 93.1824 101.97 93.1674 101.951 93.1571C101.932 93.1468 101.91 93.1414 101.888 93.1414C101.867 93.1414 101.845 93.1468 101.826 93.1571C101.807 93.1674 101.791 93.1824 101.779 93.2006L99.9424 96.0357C99.9296 96.0554 99.9224 96.0782 99.9215 96.1017C99.9206 96.1251 99.9261 96.1484 99.9374 96.169C99.9487 96.1896 99.9653 96.2067 99.9855 96.2187C100.006 96.2306 100.029 96.2368 100.052 96.2367H101.615C101.432 97.4018 100.912 98.4878 100.119 99.3606C99.3261 100.233 98.2946 100.855 97.1523 101.148C96.0099 101.441 94.8067 101.393 93.6913 101.01C92.5759 100.627 91.5972 99.9255 90.876 98.9923C90.8377 98.9434 90.7815 98.9118 90.7198 98.9043C90.6581 98.8969 90.596 98.9142 90.5471 98.9525C90.4982 98.9909 90.4665 99.0471 90.4591 99.1088C90.4516 99.1705 90.469 99.2326 90.5073 99.2815C91.2888 100.289 92.3491 101.045 93.5567 101.455C94.7642 101.865 96.0656 101.912 97.2992 101.588C98.5328 101.265 99.644 100.586 100.495 99.6359C101.346 98.686 101.899 97.5069 102.085 96.2453H103.713C103.738 96.2473 103.763 96.2419 103.786 96.2299C103.808 96.2179 103.826 96.1998 103.838 96.1777C103.85 96.1556 103.856 96.1305 103.854 96.1053C103.853 96.0801 103.844 96.056 103.829 96.0357Z" fill="black"/>
</g>
<path id="Vector_116" d="M90.4264 95.2997C90.3958 95.2997 90.3655 95.2937 90.3373 95.282C90.3091 95.2703 90.2834 95.2531 90.2618 95.2315C90.2401 95.2099 90.223 95.1843 90.2113 95.156C90.1996 95.1278 90.1936 95.0975 90.1936 95.0669C90.196 93.7116 90.6216 92.3908 91.411 91.2891C92.2004 90.1874 93.3142 89.3597 94.5968 88.9217C95.8794 88.4836 97.2668 88.4571 98.5653 88.8458C99.8637 89.2344 101.008 90.0189 101.839 91.0896C101.878 91.1385 101.895 91.2006 101.887 91.2623C101.88 91.324 101.848 91.3802 101.799 91.4185C101.751 91.4569 101.689 91.4742 101.627 91.4668C101.565 91.4593 101.509 91.4277 101.471 91.3788C100.7 90.3824 99.6377 89.652 98.4315 89.2897C97.2254 88.9275 95.9361 88.9515 94.7443 89.3586C93.5525 89.7656 92.5179 90.5352 91.7854 91.5596C91.0528 92.584 90.659 93.8119 90.6591 95.0713C90.6576 95.1321 90.6325 95.19 90.589 95.2327C90.5456 95.2753 90.4872 95.2993 90.4264 95.2997Z" fill="white"/>
<path id="Vector_117" d="M90.5739 97.1663L92.4042 94.3326C92.417 94.3129 92.4242 94.2901 92.4251 94.2666C92.426 94.2432 92.4205 94.2199 92.4092 94.1993C92.398 94.1787 92.3813 94.1615 92.3611 94.1496C92.3409 94.1377 92.3178 94.1315 92.2943 94.1316H88.6336C88.6103 94.1317 88.5874 94.1381 88.5674 94.1502C88.5473 94.1622 88.5309 94.1794 88.5198 94.1999C88.5088 94.2205 88.5034 94.2436 88.5043 94.267C88.5053 94.2903 88.5125 94.313 88.5252 94.3326L90.3541 97.1663C90.3661 97.1845 90.3824 97.1994 90.4016 97.2097C90.4207 97.2201 90.4422 97.2255 90.464 97.2255C90.4858 97.2255 90.5072 97.2201 90.5264 97.2097C90.5456 97.1994 90.5619 97.1845 90.5739 97.1663Z" fill="white"/>
<path id="Vector_118" d="M101.927 94.788C101.989 94.7883 102.048 94.813 102.091 94.8567C102.135 94.9003 102.159 94.9592 102.159 95.0207C102.156 96.376 101.73 97.6965 100.941 98.798C100.151 99.8995 99.0374 100.727 97.7549 101.165C96.4724 101.603 95.0851 101.629 93.7868 101.24C92.4886 100.852 91.3441 100.067 90.5132 98.9966C90.4748 98.9477 90.4575 98.8856 90.4649 98.8239C90.4724 98.7622 90.504 98.706 90.5529 98.6677C90.6018 98.6293 90.6639 98.612 90.7256 98.6194C90.7873 98.6269 90.8435 98.6585 90.8818 98.7074C91.6519 99.7043 92.7145 100.435 93.9207 100.798C95.127 101.161 96.4165 101.137 97.6086 100.73C98.8007 100.323 99.8356 99.5533 100.568 98.5287C101.301 97.5041 101.695 96.276 101.695 95.0164C101.696 94.9554 101.721 94.8973 101.764 94.8546C101.808 94.8119 101.867 94.788 101.927 94.788Z" fill="white"/>
<path id="Vector_119" d="M101.779 92.9199L99.9482 95.7536C99.9355 95.7734 99.9284 95.7963 99.9276 95.8198C99.9267 95.8433 99.9322 95.8666 99.9434 95.8872C99.9546 95.9079 99.9712 95.9252 99.9914 95.9373C100.012 95.9494 100.035 95.9558 100.058 95.956H103.719C103.742 95.9558 103.765 95.9494 103.785 95.9373C103.806 95.9252 103.822 95.9079 103.833 95.8872C103.845 95.8666 103.85 95.8433 103.849 95.8198C103.848 95.7963 103.841 95.7734 103.829 95.7536L101.998 92.9199C101.986 92.9017 101.97 92.8868 101.951 92.8765C101.932 92.8661 101.91 92.8607 101.888 92.8607C101.867 92.8607 101.845 92.8661 101.826 92.8765C101.807 92.8868 101.79 92.9017 101.779 92.9199Z" fill="white"/>
<path id="Vector_120" d="M16.1168 1.82078L15.7655 1.06176C15.7344 0.9952 15.685 0.938899 15.623 0.899461C15.561 0.860022 15.4891 0.839086 15.4156 0.839111H11.3935C11.3429 0.839111 11.2928 0.849106 11.246 0.868523C11.1992 0.88794 11.1568 0.916392 11.121 0.952256C11.0853 0.98812 11.057 1.03069 11.0378 1.07752C11.0185 1.12434 11.0088 1.1745 11.0089 1.22513V11.5335C11.0089 11.6354 11.0495 11.7333 11.1216 11.8054C11.1937 11.8775 11.2915 11.918 11.3935 11.918H23.8951C23.9972 11.918 24.0952 11.8776 24.1675 11.8055C24.2399 11.7334 24.2807 11.6356 24.2811 11.5335V2.42511C24.2807 2.32299 24.2399 2.22517 24.1675 2.15309C24.0952 2.08101 23.9972 2.04054 23.8951 2.04054H16.471C16.3971 2.04166 16.3245 2.02154 16.2617 1.98259C16.1989 1.94363 16.1486 1.88747 16.1168 1.82078Z" fill="#FF7D39"/>
<path id="Vector_121" d="M10.5477 11.879L9.49663 5.91518C9.47571 5.79697 9.48098 5.67562 9.51202 5.55966C9.54307 5.4437 9.59918 5.33595 9.67637 5.24401C9.75356 5.15208 9.84994 5.07818 9.95878 5.02753C10.0676 4.97688 10.1862 4.95071 10.3063 4.95085H17.2937C17.4413 4.95149 17.5863 4.91235 17.7135 4.83755C17.8407 4.76275 17.9454 4.65506 18.0166 4.5258L18.4807 3.68581C18.5518 3.55654 18.6565 3.44884 18.7837 3.37404C18.911 3.29925 19.056 3.26011 19.2035 3.26075H25.7095C25.8345 3.26075 25.9579 3.28925 26.0702 3.34407C26.1826 3.39889 26.281 3.47859 26.3579 3.57713C26.4348 3.67566 26.4883 3.79045 26.5142 3.91274C26.5402 4.03503 26.5379 4.16163 26.5076 4.28291L24.5876 11.9368C24.543 12.1146 24.4403 12.2725 24.2956 12.3851C24.151 12.4978 23.9728 12.5588 23.7895 12.5585H11.3631C11.1689 12.5597 10.9804 12.4922 10.8312 12.3678C10.6819 12.2435 10.5815 12.0703 10.5477 11.879Z" fill="#FFB669"/>
<path id="Vector_122" d="M37.0327 16.6384L36.6814 15.8808C36.6506 15.8144 36.6014 15.7582 36.5396 15.7187C36.4779 15.6793 36.4062 15.6583 36.333 15.6582H32.3108C32.2087 15.6582 32.1107 15.6987 32.0384 15.7707C31.966 15.8428 31.9252 15.9406 31.9248 16.0428V26.3511C31.9252 26.4532 31.966 26.551 32.0384 26.6231C32.1107 26.6952 32.2087 26.7357 32.3108 26.7357H44.8081C44.91 26.7357 45.0079 26.6952 45.08 26.623C45.1521 26.5509 45.1926 26.4531 45.1926 26.3511V17.2428C45.1926 17.1408 45.1521 17.043 45.08 16.9708C45.0079 16.8987 44.91 16.8582 44.8081 16.8582H37.3826C37.3095 16.8583 37.2379 16.8377 37.1759 16.7988C37.114 16.7599 37.0644 16.7043 37.0327 16.6384Z" fill="#FF7D39"/>
<path id="Vector_123" d="M44.5001 13.7439H37.5561V22.7265H44.5001V13.7439Z" fill="#CFD7E2"/>
<path id="Vector_124" d="M43.5922 13.2784H33.5644V25.2884H43.5922V13.2784Z" fill="#F4F8FF"/>
<path id="Vector_125" d="M42.7955 14.2889H34.4V14.8716H42.7955V14.2889Z" fill="#CFD7E2"/>
<path id="Vector_126" d="M42.7955 15.6293H34.4V16.2119H42.7955V15.6293Z" fill="#CFD7E2"/>
<path id="Vector_127" d="M42.7955 18.6322H34.4V19.2148H42.7955V18.6322Z" fill="#CFD7E2"/>
<path id="Vector_128" d="M42.7955 19.9723H34.4V20.5549H42.7955V19.9723Z" fill="#CFD7E2"/>
<path id="Vector_129" d="M42.7955 21.314H34.4V21.8966H42.7955V21.314Z" fill="#CFD7E2"/>
<path id="Vector_130" d="M42.7955 22.6543H34.4V23.2369H42.7955V22.6543Z" fill="#CFD7E2"/>
<path id="Vector_131" d="M40.1671 16.9709H34.4V17.5536H40.1671V16.9709Z" fill="#CFD7E2"/>
<path id="Vector_132" d="M31.4636 26.698L30.4125 20.7342C30.3919 20.616 30.3973 20.4947 30.4285 20.3788C30.4596 20.2628 30.5157 20.1551 30.5928 20.0631C30.6699 19.9711 30.7662 19.8971 30.8749 19.8462C30.9836 19.7953 31.1021 19.7688 31.2222 19.7685H38.2081C38.3557 19.7691 38.5007 19.73 38.6279 19.6552C38.7551 19.5804 38.8598 19.4727 38.931 19.3434L39.3936 18.5034C39.4651 18.3744 39.5698 18.2668 39.697 18.1921C39.8241 18.1173 39.969 18.078 40.1165 18.0784H46.6225C46.7475 18.0784 46.8709 18.1069 46.9832 18.1617C47.0956 18.2165 47.194 18.2962 47.2709 18.3948C47.3478 18.4933 47.4013 18.6081 47.4272 18.7304C47.4531 18.8527 47.4509 18.9792 47.4205 19.1005L45.5006 26.7544C45.4561 26.9322 45.3536 27.09 45.2093 27.2029C45.065 27.3157 44.8872 27.3772 44.7039 27.3776H32.2703C32.0776 27.3768 31.8912 27.3083 31.7437 27.1841C31.5963 27.0599 31.4972 26.8879 31.4636 26.698Z" fill="#FFB669"/>
<path id="Vector_133" d="M29.1966 5.93689C29.1966 5.93689 34.7932 6.37062 35.7546 11.4756" stroke="white" stroke-width="2.03126" stroke-linecap="round" stroke-linejoin="round"/>
<path id="Vector_134" d="M28.3002 5.71279L29.8501 7.26555C29.8609 7.27663 29.8745 7.28456 29.8894 7.28851C29.9044 7.29245 29.9201 7.29227 29.935 7.28796C29.9498 7.28365 29.9632 7.2754 29.9738 7.26406C29.9843 7.25273 29.9915 7.23875 29.9947 7.22362L30.4964 4.89594C30.4993 4.8811 30.4983 4.86574 30.4934 4.85144C30.4884 4.83714 30.4798 4.8244 30.4683 4.81454C30.4568 4.80469 30.4429 4.79805 30.4281 4.79533C30.4132 4.79262 30.3978 4.7939 30.3836 4.79907L28.3306 5.57401C28.3172 5.57881 28.3053 5.58691 28.2959 5.59758C28.2866 5.60825 28.2801 5.62113 28.2771 5.635C28.274 5.64887 28.2746 5.66329 28.2786 5.6769C28.2827 5.6905 28.2901 5.70285 28.3002 5.71279Z" fill="white"/>
<path id="Vector_135" d="M27.2637 22.7541C27.2637 22.7541 21.6671 22.3203 20.7042 17.2153" stroke="white" stroke-width="2.03126" stroke-linecap="round" stroke-linejoin="round"/>
<path id="Vector_136" d="M28.1601 22.9839L26.6102 21.4312C26.5994 21.4201 26.5858 21.4122 26.5709 21.4082C26.5559 21.4043 26.5402 21.4045 26.5254 21.4088C26.5105 21.4131 26.4971 21.4213 26.4866 21.4327C26.476 21.444 26.4688 21.458 26.4656 21.4731L25.964 23.7994C25.9607 23.8143 25.9615 23.8298 25.9663 23.8444C25.9711 23.8589 25.9797 23.8719 25.9912 23.8819C26.0027 23.892 26.0167 23.8987 26.0318 23.9015C26.0468 23.9043 26.0624 23.9029 26.0767 23.8977L28.1283 23.1227C28.1417 23.1181 28.1538 23.1101 28.1633 23.0995C28.1729 23.0889 28.1795 23.0761 28.1827 23.0622C28.1859 23.0483 28.1855 23.0338 28.1815 23.0201C28.1776 23.0064 28.1702 22.994 28.1601 22.9839Z" fill="white"/>
<path id="Vector_137" d="M28.673 49.3353C29.6871 44.9287 26.9369 40.5344 22.5303 39.5203C18.1237 38.5062 13.7294 41.2563 12.7153 45.6629C11.7012 50.0695 14.4514 54.4638 18.8579 55.4779C23.2645 56.492 27.6589 53.7419 28.673 49.3353Z" fill="#FFB669"/>
<g id="Group_3" opacity="0.2">
<path id="Vector_138" d="M20.3428 51.9904C20.3153 52.0179 20.2835 52.0165 20.243 51.9904L16.2455 48.9876C16.2145 48.9583 16.1904 48.9224 16.1749 48.8827C16.1594 48.8429 16.1529 48.8003 16.1559 48.7577V47.4175C16.1514 47.3746 16.1572 47.3312 16.1728 47.291C16.1884 47.2508 16.2133 47.2148 16.2455 47.1862L20.243 44.1847C20.2591 44.1681 20.2797 44.1566 20.3023 44.1515C20.3558 44.1515 20.3818 44.2122 20.3818 44.3337V45.7679C20.3845 45.8106 20.3779 45.8534 20.3624 45.8934C20.3469 45.9333 20.323 45.9694 20.2922 45.9992L17.4007 48.0233C17.3602 48.0565 17.3602 48.0898 17.4007 48.1216L20.2922 50.1673C20.3248 50.1957 20.35 50.2316 20.3656 50.2719C20.3813 50.3122 20.3868 50.3557 20.3818 50.3987V51.8329C20.3883 51.8884 20.3744 51.9444 20.3428 51.9904Z" fill="black"/>
<path id="Vector_139" d="M21.1062 52.0164C21.0527 52.0164 21.0267 51.9557 21.0267 51.8342V50.4C21.0221 50.3571 21.0278 50.3137 21.0434 50.2735C21.059 50.2332 21.084 50.1973 21.1163 50.1687L24.0079 48.123C24.0166 48.118 24.0238 48.1109 24.0289 48.1023C24.034 48.0936 24.0366 48.0838 24.0366 48.0738C24.0366 48.0638 24.034 48.054 24.0289 48.0453C24.0238 48.0367 24.0166 48.0295 24.0079 48.0246L21.1163 46.0006C21.0859 45.9705 21.0621 45.9344 21.0467 45.8945C21.0312 45.8546 21.0244 45.8119 21.0267 45.7692V44.335C21.0199 44.2793 21.0344 44.2231 21.0672 44.1775C21.0932 44.15 21.1265 44.1529 21.1655 44.1861L25.1645 47.1875C25.1964 47.2164 25.2211 47.2524 25.2364 47.2926C25.2518 47.3328 25.2573 47.3761 25.2526 47.4189V48.7548C25.2558 48.7972 25.2495 48.8398 25.2343 48.8795C25.219 48.9193 25.1952 48.9552 25.1645 48.9846L21.1655 51.9875C21.1489 52.0025 21.1283 52.0126 21.1062 52.0164Z" fill="black"/>
</g>
<path id="Vector_140" d="M20.3428 51.61C20.3153 51.6375 20.2835 51.6346 20.243 51.6013L16.2455 48.5999C16.2151 48.5699 16.1913 48.5338 16.1758 48.4939C16.1604 48.454 16.1536 48.4113 16.1559 48.3686V47.0327C16.1514 46.9898 16.1572 46.9465 16.1728 46.9062C16.1884 46.866 16.2133 46.8301 16.2455 46.8014L20.243 43.8C20.2591 43.7833 20.2797 43.7718 20.3023 43.7667C20.3558 43.7667 20.3818 43.8274 20.3818 43.9489V45.3831C20.385 45.4259 20.3786 45.4688 20.3631 45.5089C20.3476 45.5489 20.3234 45.5849 20.2922 45.6144L17.4007 47.6385C17.3916 47.6433 17.384 47.6505 17.3787 47.6592C17.3734 47.668 17.3706 47.6781 17.3706 47.6884C17.3706 47.6986 17.3734 47.7087 17.3787 47.7175C17.384 47.7263 17.3916 47.7335 17.4007 47.7382L20.2922 49.7826C20.3247 49.811 20.3498 49.8469 20.3655 49.8872C20.3811 49.9275 20.3867 49.971 20.3818 50.0139V51.4481C20.3892 51.505 20.3753 51.5627 20.3428 51.61Z" fill="white"/>
<path id="Vector_141" d="M21.1062 51.6275C21.0527 51.6275 21.0266 51.5668 21.0266 51.4454V50.0112C21.0222 49.9683 21.028 49.9249 21.0436 49.8847C21.0591 49.8445 21.0841 49.8085 21.1163 49.7799L24.0078 47.7355C24.0165 47.7304 24.0238 47.7231 24.0288 47.7144C24.0338 47.7056 24.0364 47.6957 24.0364 47.6856C24.0364 47.6756 24.0338 47.6657 24.0288 47.6569C24.0238 47.6482 24.0165 47.6409 24.0078 47.6358L21.1163 45.6117C21.0857 45.5818 21.0618 45.5457 21.0464 45.5058C21.0309 45.4659 21.0242 45.4231 21.0266 45.3804V43.9476C21.0205 43.8919 21.0349 43.8359 21.0671 43.79C21.0932 43.764 21.1264 43.7654 21.1655 43.7987L25.1645 46.8001C25.1964 46.8289 25.2211 46.8649 25.2364 46.9052C25.2518 46.9454 25.2573 46.9887 25.2526 47.0314V48.3673C25.2552 48.4099 25.2487 48.4526 25.2335 48.4925C25.2183 48.5324 25.1947 48.5686 25.1645 48.5987L21.1655 51.6001C21.1487 51.6146 21.1281 51.6241 21.1062 51.6275Z" fill="white"/>
</g>
<defs>
<clipPath id="clip0_49_4805">
<rect width="110.419" height="111.567" fill="white" transform="translate(0.43457 0.838989)"/>
</clipPath>
</defs>
</svg>
