<svg xmlns="http://www.w3.org/2000/svg" width="60" height="54" viewBox="0 0 60 54" fill="none">
<path d="M5.625 26.7683H15V19.2683C15 15.1667 11.7188 11.7683 7.5 11.7683H6.5625C5.03906 11.7683 3.75 10.5964 3.75 8.95581V3.33081C3.75 1.80737 5.03906 0.518311 6.5625 0.518311H7.5C17.9297 0.518311 26.25 8.95581 26.25 19.2683V47.3933C26.25 50.5574 23.7891 53.0183 20.625 53.0183H5.625C2.57812 53.0183 0 50.5574 0 47.3933V32.3933C0 29.3464 2.57812 26.7683 5.625 26.7683ZM39.375 26.7683H48.75V19.2683C48.75 15.1667 45.4688 11.7683 41.25 11.7683H40.3125C38.7891 11.7683 37.5 10.5964 37.5 8.95581V3.33081C37.5 1.80737 38.7891 0.518311 40.3125 0.518311H41.25C51.6797 0.518311 60 8.95581 60 19.2683V47.3933C60 50.5574 57.5391 53.0183 54.375 53.0183H39.375C36.3281 53.0183 33.75 50.5574 33.75 47.3933V32.3933C33.75 29.3464 36.3281 26.7683 39.375 26.7683Z" fill="#FFB669"/>
</svg>