<svg xmlns="http://www.w3.org/2000/svg" width="161" height="33" viewBox="0 0 161 33" fill="none">
<path d="M16.8044 0.62915L20.3967 11.6849H32.0213L22.6168 18.5177L26.209 29.5734L16.8044 22.7406L7.39988 29.5734L10.9921 18.5177L1.58754 11.6849H13.2122L16.8044 0.62915Z" fill="#FFCF40"/>
<path d="M16.8044 0.62915L20.3967 11.6849H32.0213L22.6168 18.5177L26.209 29.5734L16.8044 22.7406L7.39988 29.5734L10.9921 18.5177L1.58754 11.6849H13.2122L16.8044 0.62915Z" fill="#FFCF40"/>
<path d="M48.8046 0.629395L52.3969 11.6851H64.0215L54.617 18.5179L58.2092 29.5737L48.8046 22.7409L39.4001 29.5737L42.9923 18.5179L33.5877 11.6851H45.2124L48.8046 0.629395Z" fill="#FFCF40"/>
<path d="M80.8048 0.629395L84.397 11.6851H96.0217L86.6171 18.5179L90.2094 29.5737L80.8048 22.7409L71.4002 29.5737L74.9925 18.5179L65.5879 11.6851H77.2126L80.8048 0.629395Z" fill="#FFCF40"/>
<path d="M112.805 0.629395L116.397 11.6851H128.022L118.617 18.5179L122.21 29.5737L112.805 22.7409L103.4 29.5737L106.993 18.5179L97.5881 11.6851H109.213L112.805 0.629395Z" fill="#FFCF40"/>
<path d="M144.805 0.629395L148.397 11.6851H160.022L150.617 18.5179L154.21 29.5737L144.805 22.7409L135.401 29.5737L138.993 18.5179L129.588 11.6851H141.213L144.805 0.629395Z" fill="#FFCF40"/>
</svg>